<?xml version="1.0" encoding="UTF-8" standalone="yes"?>
<!-- Created with sK1/UniConvertor (http://sk1project.org/) -->
<svg xmlns="http://www.w3.org/2000/svg" xmlns:xlink="http://www.w3.org/1999/xlink"
  width="595.276pt" height="841.89pt" viewBox="0 0 595.276 841.89"
  fill-rule="evenodd">
<g>
<path style="stroke:#000000; stroke-width:0.72; fill:none" d="M 438.373 834.836L 340.52 598.563L 339.78 598.562L 177.386 760.939L 140.621 797.7L 140.619 798.438L 146.031 804.875L 151.334 807.565L 155.247 807.51L 159.619 818.066L 156.813 820.794L 154.964 826.445L 155.688 834.824L 156.211 835.344L 208.202 835.347L 437.85 835.359L 438.373 834.836z"/>
<path style="stroke:#000000; stroke-width:0.72; fill:none" d="M 0 596.212L 97.853 832.486L 98.5927 832.486L 260.987 670.109L 297.752 633.348L 297.754 632.611L 292.342 626.173L 287.039 623.484L 283.126 623.538L 278.754 612.982L 281.56 610.254L 283.409 604.603L 282.684 596.224L 282.162 595.704L 230.171 595.701L 0.522858 595.689L 0 596.212z"/>
<path style="stroke:#000000; stroke-width:0.72; fill:none" d="M 167.873 808.464L 173.611 810.841L 175.988 805.103L 170.25 802.726L 167.873 808.464z"/>
<path style="stroke:#000000; stroke-width:0.72; fill:none" d="M 270.5 622.584L 264.762 620.208L 262.385 625.946L 268.123 628.323L 270.5 622.584z"/>
<path style="stroke:#000000; stroke-width:0.72; fill:none" d="M 438.373 589.941L 340.52 353.668L 339.78 353.668L 177.386 516.045L 140.621 552.806L 140.619 553.543L 146.031 559.981L 151.334 562.67L 155.247 562.615L 159.619 573.172L 156.813 575.899L 154.964 581.551L 155.688 589.93L 156.211 590.45L 208.202 590.453L 437.85 590.465L 438.373 589.941z"/>
<path style="stroke:#000000; stroke-width:0.72; fill:none" d="M 0 351.318L 97.853 587.591L 98.5927 587.591L 260.987 425.214L 297.752 388.453L 297.754 387.716L 292.342 381.278L 287.039 378.589L 283.126 378.644L 278.754 368.088L 281.56 365.36L 283.409 359.708L 282.684 351.329L 282.162 350.809L 230.171 350.807L 0.522858 350.794L 0 351.318z"/>
<path style="stroke:#000000; stroke-width:0.72; fill:none" d="M 167.873 563.569L 173.611 565.946L 175.988 560.208L 170.25 557.831L 167.873 563.569z"/>
<path style="stroke:#000000; stroke-width:0.72; fill:none" d="M 270.5 377.69L 264.762 375.313L 262.385 381.051L 268.123 383.428L 270.5 377.69z"/>
<path style="stroke:#000000; stroke-width:0.72; fill:none" d="M 840 841.367L 742.147 605.093L 741.407 605.093L 579.013 767.47L 542.248 804.231L 542.246 804.968L 547.658 811.406L 552.961 814.095L 556.874 814.041L 561.246 824.597L 558.44 827.325L 556.591 832.976L 557.316 841.355L 557.838 841.875L 609.829 841.878L 839.477 841.89L 840 841.367z"/>
<path style="stroke:#000000; stroke-width:0.72; fill:none" d="M 401.627 602.743L 499.48 839.016L 500.22 839.017L 662.614 676.639L 699.379 639.878L 699.381 639.141L 693.969 632.703L 688.666 630.014L 684.753 630.069L 680.381 619.513L 683.187 616.785L 685.036 611.133L 684.312 602.754L 683.789 602.234L 631.798 602.232L 402.15 602.22L 401.627 602.743z"/>
<path style="stroke:#000000; stroke-width:0.72; fill:none" d="M 569.5 814.994L 575.238 817.371L 577.615 811.633L 571.877 809.256L 569.5 814.994z"/>
<path style="stroke:#000000; stroke-width:0.72; fill:none" d="M 672.127 629.115L 666.389 626.738L 664.012 632.476L 669.75 634.853L 672.127 629.115z"/>
<path style="stroke:#000000; stroke-width:0.72; fill:none" d="M 840 596.472L 742.147 360.199L 741.407 360.198L 579.013 522.575L 542.248 559.336L 542.246 560.074L 547.658 566.511L 552.961 569.2L 556.874 569.146L 561.246 579.702L 558.44 582.43L 556.591 588.081L 557.316 596.46L 557.838 596.98L 609.829 596.983L 839.477 596.995L 840 596.472z"/>
<path style="stroke:#000000; stroke-width:0.72; fill:none" d="M 401.627 357.848L 499.48 594.122L 500.22 594.122L 662.614 431.745L 699.379 394.984L 699.381 394.246L 693.969 387.809L 688.666 385.12L 684.753 385.174L 680.381 374.618L 683.187 371.89L 685.036 366.239L 684.312 357.86L 683.789 357.34L 631.798 357.337L 402.15 357.325L 401.627 357.848z"/>
<path style="stroke:#000000; stroke-width:0.72; fill:none" d="M 569.5 570.1L 575.238 572.477L 577.615 566.738L 571.877 564.362L 569.5 570.1z"/>
<path style="stroke:#000000; stroke-width:0.72; fill:none" d="M 672.127 384.22L 666.389 381.844L 664.012 387.582L 669.75 389.959L 672.127 384.22z"/>
</g>
</svg>