<?xml version="1.0" encoding="UTF-8" standalone="yes"?>
<!-- Created with sK1/UniConvertor (http://sk1project.org/) -->
<svg xmlns="http://www.w3.org/2000/svg" xmlns:xlink="http://www.w3.org/1999/xlink"
  width="595.276pt" height="841.89pt" viewBox="0 0 595.276 841.89"
  fill-rule="evenodd">
<g>
<path style="stroke:#000000; stroke-width:0.72; fill:none" d="M 166.935 393.858L 161.233 393.667L 155.416 393.251L 149.79 392.649L 144.222 391.875L 138.382 390.901L 132.949 389.864L 127.304 388.679L 123.084 387.74L 118.935 386.781L 114.966 385.84L 110.474 384.759L 106.222 383.729L 101.815 382.658L 96.9368 381.488L 92.3179 380.402L 85.4674 378.843L 77.5685 377.143L 69.5706 375.549L 61.5477 374.093L 52.5465 372.643L 46.6759 371.803L 40.8237 371.051L 34.2858 370.31L 27.6532 369.664L 20.9736 369.119L 14.247 368.675L 23.1205 356.902L 23.0954 348.282L 14.247 336.535L 22.4126 335.982L 30.509 335.28L 38.5364 334.429L 45.8521 333.517L 52.9832 332.5L 60.1418 331.356L 66.7605 330.188L 73.0133 328.991L 78.0579 327.964L 83.2184 326.862L 87.311 325.952L 91.5285 324.986L 96.1604 323.901L 101.207 322.696L 105.781 321.59L 110.033 320.559L 118.501 318.529L 127.212 316.55L 134.98 314.944L 143.022 313.521L 150.838 312.434L 158.902 311.682L 166.935 311.352L 167.142 311.555L 167.142 317.391L 167.142 318.472L 168.223 318.472L 171.309 318.472L 172.389 317.391L 172.389 311.616L 172.605 311.413L 173.688 311.493L 174.758 311.61L 175.779 311.763L 176.752 311.952L 178.757 312.5L 180.565 313.226L 182.176 314.132L 183.591 315.216L 184.815 316.482L 185.886 317.959L 186.364 318.777L 186.804 319.648L 187.206 320.571L 187.569 321.548L 188.011 322.995L 188.39 324.571L 188.669 326.06L 188.895 327.582L 189.12 329.396L 189.12 375.813L 188.932 377.345L 188.744 378.674L 188.555 379.801L 188.271 381.177L 187.942 382.464L 187.569 383.661L 186.804 385.561L 185.886 387.25L 184.815 388.727L 183.591 389.993L 182.177 391.077L 180.566 391.983L 179.686 392.369L 178.757 392.71L 177.779 393.006L 176.752 393.257L 175.444 393.501L 174.05 393.681L 172.605 393.796L 172.389 393.593L 172.389 387.818L 171.309 386.737L 168.223 386.737L 167.142 387.818L 167.142 393.654L 166.935 393.858z"/>
<path style="stroke:#000000; stroke-width:0.72; fill:none" d="M 122.814 373.717L 171.65 352.605L 122.814 331.492L 113.687 352.605L 122.814 373.717z"/>
<path style="stroke:#000000; stroke-width:0.72; fill:none" d="M 97.9299 369.36L 122.814 373.717L 136.688 352.605L 122.814 331.492L 97.9299 335.849L 90.6862 352.605L 97.9299 369.36z"/>
<path style="stroke:#000000; stroke-width:0.72; fill:none" d="M 78.1806 365.903L 97.9299 369.36L 108.941 352.605L 97.9299 335.849L 78.1806 339.307L 72.4318 352.605L 78.1806 365.903z"/>
<path style="stroke:#000000; stroke-width:0.72; fill:none" d="M 57.9444 352.605L 78.1806 365.903L 86.9191 352.605L 78.1806 339.307L 57.9444 352.605z"/>
<path style="stroke:#000000; stroke-width:0.72; fill:none" d="M 171.65 352.605L 136.688 352.605L 113.687 352.605L 108.941 352.605L 90.6862 352.605L 86.9191 352.605L 72.4318 352.605L 57.9444 352.605"/>
<path style="stroke:#000000; stroke-width:0.72; fill:none" d="M 263.319 294.077L 391.353 294.077L 399.504 290.002L 391.353 285.926L 263.319 285.926L 263.319 294.077z"/>
<path style="stroke:#000000; stroke-width:0.72; fill:none" d="M 3.45079 313.21L 3.45079 266.793L 3.73233 264.571L 4.01536 262.805L 4.45851 260.774L 5.00156 258.945L 5.7666 257.044L 6.68458 255.356L 8.97939 252.613L 10.3941 251.528L 12.0056 250.623L 15.8189 249.349L 17.1273 249.105L 18.5216 248.925L 19.9659 248.81L 20.1814 249.013L 20.1814 263.001L 25.4288 263.001L 25.4288 248.952L 25.6354 248.748L 37.911 249.426L 49.8662 250.97L 62.5114 253.335L 73.7137 255.842L 86.6852 258.963L 98.9621 261.902L 111.252 264.669L 127.693 267.927L 144.376 270.594L 161.244 272.596L 178.324 273.931L 183.003 272.151L 188.377 266.777L 189.837 262.373L 201.586 253.568L 210.232 253.568L 221.982 262.373L 223.441 266.777L 228.816 272.151L 233.495 273.931L 250.882 272.565L 268.05 270.508L 285.026 267.764L 301.746 264.415L 319.108 260.419L 330.132 257.748L 341.329 255.094L 352.594 252.663L 363.895 250.667L 374.945 249.331L 386.183 248.749L 386.389 248.952L 386.389 263.001L 391.637 263.001L 391.637 249.013L 391.852 248.81L 394.005 249.007L 395.999 249.349L 398.005 249.897L 399.813 250.623L 402.839 252.613L 405.134 255.356L 406.817 258.945L 407.519 261.429L 407.992 263.932L 408.368 266.793L 408.368 313.21L 408.086 315.432L 407.803 317.198L 407.36 319.229L 406.817 321.058L 406.052 322.959L 405.134 324.647L 402.839 327.39L 401.424 328.475L 399.813 329.38L 395.999 330.654L 394.691 330.898L 393.297 331.078L 391.852 331.193L 391.637 330.99L 391.637 317.002L 386.389 317.002L 386.389 331.051L 386.183 331.255L 373.907 330.577L 361.952 329.033L 349.307 326.668L 338.105 324.161L 325.133 321.04L 312.856 318.102L 300.567 315.334L 284.126 312.076L 267.442 309.409L 250.574 307.407L 233.495 306.072L 228.816 307.852L 223.441 313.226L 221.982 317.63L 210.232 326.435L 201.586 326.435L 189.837 317.63L 188.377 313.226L 183.003 307.852L 178.324 306.072L 160.936 307.438L 143.768 309.495L 126.792 312.239L 110.072 315.588L 92.7103 319.584L 81.6866 322.255L 70.4889 324.909L 59.2247 327.34L 47.9232 329.337L 36.8728 330.672L 25.6354 331.254L 25.4288 331.051L 25.4288 317.002L 20.1814 317.002L 20.1814 330.99L 19.9659 331.193L 17.8132 330.996L 15.8189 330.654L 13.8135 330.106L 12.0051 329.38L 8.97939 327.39L 6.68425 324.647L 5.00156 321.058L 4.29955 318.574L 3.82646 316.071L 3.45079 313.21z"/>
<path style="stroke:#000000; stroke-width:0.72; fill:none" d="M 246.945 311.351L 252.648 311.541L 258.465 311.957L 264.091 312.56L 269.659 313.333L 275.499 314.307L 280.932 315.345L 286.577 316.529L 290.796 317.468L 294.946 318.427L 298.914 319.368L 303.406 320.45L 307.658 321.48L 312.065 322.55L 316.944 323.721L 321.563 324.806L 328.413 326.366L 336.312 328.065L 344.31 329.66L 352.333 331.116L 361.334 332.566L 367.205 333.405L 373.057 334.158L 379.595 334.899L 386.227 335.544L 392.907 336.09L 399.634 336.534L 390.76 348.306L 390.785 356.927L 399.634 368.674L 391.468 369.227L 383.371 369.929L 375.344 370.779L 368.028 371.692L 360.897 372.708L 353.739 373.853L 347.12 375.021L 340.867 376.218L 335.823 377.244L 330.662 378.346L 326.569 379.256L 322.352 380.222L 317.72 381.308L 312.674 382.512L 308.099 383.618L 303.847 384.65L 295.379 386.679L 286.668 388.659L 278.901 390.264L 270.858 391.687L 263.043 392.775L 254.979 393.526L 246.945 393.857L 246.739 393.653L 246.739 387.817L 246.739 386.737L 245.658 386.737L 242.572 386.737L 241.491 387.817L 241.491 393.592L 241.276 393.796L 240.192 393.716L 239.123 393.598L 238.102 393.445L 237.129 393.257L 235.124 392.709L 233.316 391.982L 231.704 391.077L 230.289 389.993L 229.065 388.727L 227.994 387.25L 227.516 386.432L 227.076 385.561L 226.675 384.637L 226.311 383.66L 225.869 382.213L 225.491 380.637L 225.212 379.149L 224.986 377.626L 224.761 375.813L 224.761 329.395L 224.948 327.864L 225.136 326.534L 225.325 325.407L 225.609 324.031L 225.938 322.745L 226.311 321.547L 227.076 319.647L 227.994 317.959L 229.065 316.481L 230.289 315.215L 231.704 314.131L 233.315 313.226L 234.195 312.84L 235.123 312.499L 236.101 312.203L 237.129 311.951L 238.436 311.708L 239.83 311.527L 241.275 311.412L 241.491 311.616L 241.491 317.39L 242.572 318.471L 245.658 318.471L 246.739 317.39L 246.739 311.555L 246.945 311.351z"/>
<path style="stroke:#000000; stroke-width:0.72; fill:none" d="M 291.066 331.491L 242.23 352.604L 291.066 373.716L 300.193 352.604L 291.066 331.491z"/>
<path style="stroke:#000000; stroke-width:0.72; fill:none" d="M 315.951 335.848L 291.066 331.491L 277.192 352.604L 291.066 373.716L 315.951 369.36L 323.194 352.604L 315.951 335.848z"/>
<path style="stroke:#000000; stroke-width:0.72; fill:none" d="M 335.7 339.306L 315.951 335.848L 304.94 352.604L 315.951 369.36L 335.7 365.902L 341.449 352.604L 335.7 339.306z"/>
<path style="stroke:#000000; stroke-width:0.72; fill:none" d="M 355.936 352.604L 335.7 339.306L 326.961 352.604L 335.7 365.902L 355.936 352.604z"/>
<path style="stroke:#000000; stroke-width:0.72; fill:none" d="M 242.23 352.604L 277.192 352.604L 300.193 352.604L 304.94 352.604L 323.194 352.604L 326.961 352.604L 341.449 352.604L 355.936 352.604"/>
<path style="stroke:#000000; stroke-width:0.72; fill:none" d="M 243.995 419.671L 243.995 426.702L 228.456 426.702L 223.612 426.851L 218.239 427.265L 212.386 427.895L 206.105 428.69L 199.446 429.6L 190.503 430.846L 181.134 432.095L 171.442 433.245L 161.532 434.191L 151.507 434.832L 144.357 435.048L 137.393 435.03L 130.811 434.755L 124.738 434.218L 119.133 433.462L 113.926 432.536L 109.048 431.491L 103.058 430.03L 97.3597 428.562L 91.8003 427.2L 88.2647 426.44L 84.6837 425.796L 81.0178 425.299L 77.228 424.975L 73.3892 424.833L 69.8374 424.831L 67.4173 424.899L 65.5422 425.005L 64.0877 425.141L 62.8927 425.3L 61.796 425.476L 60.6366 425.662L 59.2532 425.851L 57.9341 425.995L 56.3131 426.133L 54.3168 426.263L 51.8715 426.382L 49.3898 426.472L 46.487 426.55L 43.1183 426.614L 39.2385 426.661L 34.8029 426.691L 29.7664 426.702L 4.29333 426.702L 2.25548 424.664L 2.25548 421.709L 4.29333 419.671L 18.5474 419.671L 19.679 418.647L 19.679 412.679L 24.6718 412.679L 24.6718 418.591L 25.7525 419.671L 28.6856 419.671L 29.7664 419.671L 29.7664 418.591L 29.7664 412.487L 32.0116 412.722L 34.4722 413.268L 37.124 413.997L 39.9428 414.782L 42.9595 415.505L 46.0986 416.02L 49.3346 416.19L 52.6421 415.88L 55.9641 415.001L 58.7651 413.844L 61.2108 412.492L 63.2104 411.048L 64.8213 409.548L 66.1124 408.023L 67.3817 406.13L 68.3938 404.305L 69.2835 402.61L 70.1853 401.104L 71.1062 399.973L 72.2378 399.082L 73.6746 398.472L 75.0096 398.224L 76.6094 398.177L 78.5141 398.347L 80.7634 398.753L 80.7634 403.796L 76.7495 403.796L 75.6688 404.877L 75.6688 408.931L 76.7495 410.012L 80.7634 410.012L 89.1439 413.78L 97.314 416.982L 105.285 419.654L 113.069 421.828L 120.813 423.567L 128.388 424.862L 135.804 425.75L 143.074 426.265L 150.211 426.446L 158.961 426.254L 167.549 425.668L 176.021 424.79L 184.436 423.732L 193.002 422.587L 201.628 421.489L 210.372 420.558L 219.294 419.913L 228.456 419.671L 232.47 419.671L 233.551 418.591L 233.551 412.679L 238.543 412.679L 238.543 418.647L 239.675 419.671L 243.995 419.671z"/>
<path style="stroke:#000000; stroke-width:0.72; fill:none" d="M 243.995 450.449L 243.995 457.479L 228.456 457.479L 223.612 457.628L 218.239 458.043L 212.386 458.672L 206.105 459.467L 199.446 460.377L 190.503 461.623L 181.134 462.872L 171.442 464.022L 161.532 464.968L 151.507 465.609L 144.357 465.825L 137.393 465.807L 130.811 465.532L 124.738 464.995L 119.133 464.239L 113.926 463.313L 109.048 462.268L 103.058 460.807L 97.3597 459.339L 91.8003 457.978L 88.2647 457.217L 84.6837 456.574L 81.0178 456.076L 77.228 455.752L 73.3892 455.611L 69.8374 455.609L 67.4173 455.676L 65.5422 455.782L 64.0877 455.918L 62.8927 456.078L 61.796 456.253L 60.6366 456.439L 59.2532 456.628L 57.9341 456.772L 56.3131 456.91L 54.3168 457.04L 51.8715 457.16L 49.3898 457.249L 46.487 457.327L 43.1183 457.391L 39.2385 457.439L 34.8029 457.469L 29.7664 457.479L 4.29333 457.479L 2.25548 455.441L 2.25548 452.486L 4.29333 450.449L 18.5474 450.449L 19.679 449.424L 19.679 443.456L 24.6718 443.456L 24.6718 449.368L 25.7525 450.449L 28.6856 450.449L 29.7664 450.449L 29.7664 449.368L 29.7664 443.265L 32.0116 443.499L 34.4722 444.045L 37.124 444.774L 39.9428 445.559L 42.9595 446.283L 46.0986 446.797L 49.3346 446.967L 52.6421 446.658L 55.9641 445.778L 58.7651 444.621L 61.2108 443.269L 63.2104 441.825L 64.8213 440.325L 66.1124 438.801L 67.3817 436.907L 68.3938 435.082L 69.2835 433.387L 70.1853 431.881L 71.1062 430.75L 72.2378 429.859L 73.6746 429.249L 75.0096 429.001L 76.6094 428.954L 78.5141 429.124L 80.7634 429.53L 80.7634 434.573L 76.7495 434.573L 75.6688 435.654L 75.6688 439.708L 76.7495 440.789L 80.7634 440.789L 89.1439 444.557L 97.314 447.759L 105.285 450.431L 113.069 452.606L 120.813 454.344L 128.388 455.64L 135.804 456.527L 143.074 457.043L 150.211 457.223L 158.961 457.031L 167.549 456.445L 176.021 455.567L 184.436 454.51L 193.002 453.364L 201.628 452.266L 210.372 451.335L 219.294 450.69L 228.456 450.449L 232.47 450.449L 233.551 449.368L 233.551 443.456L 238.543 443.456L 238.543 449.424L 239.675 450.449L 243.995 450.449z"/>
<path style="stroke:#000000; stroke-width:0.72; fill:none" d="M 243.995 481.226L 243.995 488.256L 228.456 488.256L 223.612 488.405L 218.239 488.82L 212.386 489.449L 206.105 490.244L 199.446 491.154L 190.503 492.4L 181.134 493.65L 171.442 494.799L 161.532 495.746L 151.507 496.386L 144.357 496.602L 137.393 496.584L 130.811 496.31L 124.738 495.773L 119.133 495.016L 113.926 494.09L 109.048 493.046L 103.058 491.584L 97.3597 490.117L 91.8003 488.755L 88.2647 487.994L 84.6837 487.351L 81.0178 486.853L 77.228 486.53L 73.3892 486.388L 69.8374 486.386L 67.4173 486.453L 65.5422 486.559L 64.0877 486.695L 62.8927 486.855L 61.796 487.031L 60.6366 487.217L 59.2532 487.406L 57.9341 487.549L 56.3131 487.688L 54.3168 487.818L 51.8715 487.937L 49.3898 488.027L 46.487 488.104L 43.1183 488.168L 39.2385 488.216L 34.8029 488.246L 29.7664 488.256L 4.29333 488.256L 2.25548 486.218L 2.25548 483.264L 4.29333 481.226L 18.5474 481.226L 19.679 480.201L 19.679 474.233L 24.6718 474.233L 24.6718 480.145L 25.7525 481.226L 28.6856 481.226L 29.7664 481.226L 29.7664 480.145L 29.7664 474.042L 32.0116 474.277L 34.4722 474.822L 37.124 475.551L 39.9428 476.336L 42.9595 477.06L 46.0986 477.574L 49.3346 477.744L 52.6421 477.435L 55.9641 476.555L 58.7651 475.398L 61.2108 474.046L 63.2104 472.602L 64.8213 471.102L 66.1124 469.578L 67.3817 467.684L 68.3938 465.86L 69.2835 464.164L 70.1853 462.659L 71.1062 461.528L 72.2378 460.636L 73.6746 460.026L 75.0096 459.779L 76.6094 459.731L 78.5141 459.901L 80.7634 460.307L 80.7634 465.351L 76.7495 465.351L 75.6688 466.431L 75.6688 470.485L 76.7495 471.566L 80.7634 471.566L 89.1439 475.334L 97.314 478.537L 105.285 481.208L 113.069 483.383L 120.813 485.122L 128.388 486.417L 135.804 487.304L 143.074 487.82L 150.211 488L 158.961 487.808L 167.549 487.223L 176.021 486.345L 184.436 485.287L 193.002 484.141L 201.628 483.043L 210.372 482.113L 219.294 481.467L 228.456 481.226L 232.47 481.226L 233.551 480.145L 233.551 474.233L 238.543 474.233L 238.543 480.201L 239.675 481.226L 243.995 481.226z"/>
<path style="stroke:#000000; stroke-width:0.72; fill:none" d="M 243.995 510.464L 243.995 517.495L 228.456 517.495L 223.612 517.644L 218.239 518.058L 212.386 518.688L 206.105 519.482L 199.446 520.392L 190.503 521.639L 181.134 522.888L 171.442 524.037L 161.532 524.984L 151.507 525.625L 144.357 525.84L 137.393 525.823L 130.811 525.548L 124.738 525.011L 119.133 524.255L 113.926 523.329L 109.048 522.284L 103.058 520.823L 97.3597 519.355L 91.8003 517.993L 88.2647 517.233L 84.6837 516.589L 81.0178 516.091L 77.228 515.768L 73.3892 515.626L 69.8374 515.624L 67.4173 515.692L 65.5422 515.798L 64.0877 515.934L 62.8927 516.093L 61.796 516.269L 60.6366 516.455L 59.2532 516.644L 57.9341 516.787L 56.3131 516.926L 54.3168 517.056L 51.8715 517.175L 49.3898 517.265L 46.487 517.343L 43.1183 517.406L 39.2385 517.454L 34.8029 517.484L 29.7664 517.495L 4.29333 517.495L 2.25548 515.457L 2.25548 512.502L 4.29333 510.464L 18.5474 510.464L 19.679 509.44L 19.679 503.472L 24.6718 503.472L 24.6718 509.383L 25.7525 510.464L 28.6856 510.464L 29.7664 510.464L 29.7664 509.383L 29.7664 503.28L 32.0116 503.515L 34.4722 504.061L 37.124 504.79L 39.9428 505.574L 42.9595 506.298L 46.0986 506.812L 49.3346 506.982L 52.6421 506.673L 55.9641 505.794L 58.7651 504.637L 61.2108 503.284L 63.2104 501.84L 64.8213 500.341L 66.1124 498.816L 67.3817 496.922L 68.3938 495.098L 69.2835 493.403L 70.1853 491.897L 71.1062 490.766L 72.2378 489.874L 73.6746 489.264L 75.0096 489.017L 76.6094 488.969L 78.5141 489.14L 80.7634 489.545L 80.7634 494.589L 76.7495 494.589L 75.6688 495.67L 75.6688 499.724L 76.7495 500.804L 80.7634 500.804L 89.1439 504.572L 97.314 507.775L 105.285 510.447L 113.069 512.621L 120.813 514.36L 128.388 515.655L 135.804 516.542L 143.074 517.058L 150.211 517.238L 158.961 517.046L 167.549 516.461L 176.021 515.583L 184.436 514.525L 193.002 513.379L 201.628 512.282L 210.372 511.351L 219.294 510.706L 228.456 510.464L 232.47 510.464L 233.551 509.383L 233.551 503.472L 238.543 503.472L 238.543 509.44L 239.675 510.464L 243.995 510.464z"/>
<path style="stroke:#000000; stroke-width:0.72; fill:none" d="M 243.995 541.241L 243.995 548.272L 228.456 548.272L 223.612 548.421L 218.239 548.835L 212.386 549.465L 206.105 550.259L 199.446 551.169L 190.503 552.416L 181.134 553.665L 171.442 554.814L 161.532 555.761L 151.507 556.402L 144.357 556.618L 137.393 556.6L 130.811 556.325L 124.738 555.788L 119.133 555.032L 113.926 554.106L 109.048 553.061L 103.058 551.6L 97.3597 550.132L 91.8003 548.77L 88.2647 548.01L 84.6837 547.366L 81.0178 546.869L 77.228 546.545L 73.3892 546.403L 69.8374 546.401L 67.4173 546.469L 65.5422 546.575L 64.0877 546.711L 62.8927 546.87L 61.796 547.046L 60.6366 547.232L 59.2532 547.421L 57.9341 547.565L 56.3131 547.703L 54.3168 547.833L 51.8715 547.952L 49.3898 548.042L 46.487 548.12L 43.1183 548.184L 39.2385 548.231L 34.8029 548.261L 29.7664 548.272L 4.29333 548.272L 2.25548 546.234L 2.25548 543.279L 4.29333 541.241L 18.5474 541.241L 19.679 540.217L 19.679 534.249L 24.6718 534.249L 24.6718 540.161L 25.7525 541.241L 28.6856 541.241L 29.7664 541.241L 29.7664 540.161L 29.7664 534.057L 32.0116 534.292L 34.4722 534.838L 37.124 535.567L 39.9428 536.351L 42.9595 537.075L 46.0986 537.59L 49.3346 537.76L 52.6421 537.45L 55.9641 536.571L 58.7651 535.414L 61.2108 534.062L 63.2104 532.618L 64.8213 531.118L 66.1124 529.593L 67.3817 527.7L 68.3938 525.875L 69.2835 524.18L 70.1853 522.674L 71.1062 521.543L 72.2378 520.652L 73.6746 520.042L 75.0096 519.794L 76.6094 519.747L 78.5141 519.917L 80.7634 520.322L 80.7634 525.366L 76.7495 525.366L 75.6688 526.447L 75.6688 530.501L 76.7495 531.582L 80.7634 531.582L 89.1439 535.349L 97.314 538.552L 105.285 541.224L 113.069 543.398L 120.813 545.137L 128.388 546.432L 135.804 547.32L 143.074 547.835L 150.211 548.016L 158.961 547.824L 167.549 547.238L 176.021 546.36L 184.436 545.302L 193.002 544.156L 201.628 543.059L 210.372 542.128L 219.294 541.483L 228.456 541.241L 232.47 541.241L 233.551 540.161L 233.551 534.249L 238.543 534.249L 238.543 540.217L 239.675 541.241L 243.995 541.241z"/>
<path style="stroke:#000000; stroke-width:0.72; fill:none" d="M 272.722 396.622L 279.752 396.622L 279.752 412.16L 279.902 417.004L 280.316 422.378L 280.945 428.23L 281.74 434.511L 282.65 441.171L 283.896 450.113L 285.146 459.483L 286.295 469.174L 287.242 479.085L 287.883 489.11L 288.098 496.259L 288.081 503.223L 287.806 509.806L 287.269 515.878L 286.512 521.484L 285.587 526.691L 284.542 531.568L 283.08 537.559L 281.613 543.257L 280.251 548.816L 279.49 552.352L 278.847 555.933L 278.349 559.599L 278.026 563.389L 277.884 567.227L 277.882 570.779L 277.949 573.199L 278.055 575.074L 278.191 576.529L 278.351 577.724L 278.527 578.821L 278.713 579.98L 278.902 581.363L 279.045 582.682L 279.184 584.303L 279.314 586.3L 279.433 588.745L 279.523 591.227L 279.6 594.13L 279.664 597.498L 279.712 601.378L 279.742 605.814L 279.752 610.85L 279.752 636.323L 277.715 638.361L 274.76 638.361L 272.722 636.323L 272.722 622.069L 271.697 620.938L 265.73 620.938L 265.73 615.945L 271.641 615.945L 272.722 614.864L 272.722 611.931L 272.722 610.85L 271.641 610.85L 265.538 610.85L 265.773 608.605L 266.318 606.144L 267.047 603.493L 267.832 600.674L 268.556 597.657L 269.07 594.518L 269.24 591.282L 268.931 587.974L 268.052 584.652L 266.894 581.851L 265.542 579.406L 264.098 577.406L 262.599 575.795L 261.074 574.504L 259.18 573.235L 257.356 572.223L 255.66 571.333L 254.155 570.431L 253.024 569.51L 252.132 568.379L 251.522 566.942L 251.275 565.607L 251.227 564.007L 251.397 562.102L 251.803 559.853L 256.847 559.853L 256.847 563.867L 257.927 564.948L 261.981 564.948L 263.062 563.867L 263.062 559.853L 266.83 551.473L 270.033 543.302L 272.704 535.331L 274.879 527.548L 276.618 519.803L 277.913 512.229L 278.8 504.813L 279.316 497.542L 279.496 490.406L 279.304 481.655L 278.719 473.068L 277.841 464.595L 276.783 456.181L 275.637 447.614L 274.539 438.989L 273.609 430.245L 272.963 421.322L 272.722 412.16L 272.722 408.147L 271.641 407.066L 265.73 407.066L 265.73 402.073L 271.697 402.073L 272.722 400.941L 272.722 396.622z"/>
<path style="stroke:#000000; stroke-width:0.72; fill:none" d="M 309.564 387.524L 316.595 387.524L 316.595 403.063L 316.744 407.906L 317.158 413.28L 317.788 419.132L 318.582 425.413L 319.492 432.073L 320.739 441.015L 321.988 450.385L 323.137 460.077L 324.084 469.987L 324.725 480.012L 324.941 487.161L 324.923 494.126L 324.648 500.708L 324.111 506.78L 323.355 512.386L 322.429 517.593L 321.384 522.47L 319.923 528.461L 318.455 534.159L 317.093 539.718L 316.333 543.254L 315.689 546.835L 315.191 550.501L 314.868 554.291L 314.726 558.13L 314.724 561.681L 314.792 564.101L 314.898 565.976L 315.034 567.431L 315.193 568.626L 315.369 569.723L 315.555 570.882L 315.744 572.266L 315.888 573.585L 316.026 575.206L 316.156 577.202L 316.275 579.647L 316.365 582.129L 316.443 585.032L 316.507 588.4L 316.554 592.28L 316.584 596.716L 316.595 601.752L 316.595 627.225L 314.557 629.263L 311.602 629.263L 309.564 627.225L 309.564 612.971L 308.54 611.84L 302.572 611.84L 302.572 606.847L 308.484 606.847L 309.564 605.766L 309.564 602.833L 309.564 601.752L 308.484 601.752L 302.38 601.752L 302.615 599.507L 303.161 597.047L 303.89 594.395L 304.674 591.576L 305.398 588.559L 305.913 585.42L 306.083 582.184L 305.773 578.877L 304.894 575.555L 303.737 572.754L 302.385 570.308L 300.941 568.308L 299.441 566.697L 297.916 565.406L 296.023 564.137L 294.198 563.125L 292.503 562.235L 290.997 561.333L 289.866 560.412L 288.975 559.281L 288.365 557.844L 288.117 556.509L 288.07 554.909L 288.24 553.005L 288.645 550.755L 293.689 550.755L 293.689 554.769L 294.77 555.85L 298.824 555.85L 299.905 554.769L 299.905 550.755L 303.672 542.375L 306.875 534.205L 309.547 526.233L 311.721 518.45L 313.46 510.705L 314.755 503.131L 315.643 495.715L 316.158 488.445L 316.339 481.308L 316.147 472.557L 315.561 463.97L 314.683 455.497L 313.625 447.083L 312.479 438.516L 311.382 429.891L 310.451 421.147L 309.806 412.224L 309.564 403.063L 309.564 399.049L 308.484 397.968L 302.572 397.968L 302.572 392.975L 308.54 392.975L 309.564 391.844L 309.564 387.524z"/>
<path style="stroke:#000000; stroke-width:0.72; fill:none" d="M 346.407 378.426L 353.437 378.426L 353.437 393.965L 353.586 398.809L 354.001 404.182L 354.63 410.034L 355.425 416.316L 356.335 422.975L 357.581 431.918L 358.83 441.287L 359.98 450.979L 360.926 460.889L 361.567 470.914L 361.783 478.064L 361.765 485.028L 361.491 491.61L 360.953 497.683L 360.197 503.288L 359.271 508.495L 358.227 513.372L 356.765 519.363L 355.298 525.061L 353.936 530.621L 353.175 534.156L 352.532 537.737L 352.034 541.403L 351.711 545.193L 351.569 549.032L 351.567 552.583L 351.634 555.004L 351.74 556.879L 351.876 558.333L 352.036 559.528L 352.212 560.625L 352.397 561.784L 352.587 563.168L 352.73 564.487L 352.868 566.108L 352.999 568.104L 353.118 570.549L 353.208 573.031L 353.285 575.934L 353.349 579.303L 353.397 583.182L 353.427 587.618L 353.437 592.654L 353.437 618.128L 351.399 620.165L 348.445 620.165L 346.407 618.128L 346.407 603.873L 345.382 602.742L 339.414 602.742L 339.414 597.749L 345.326 597.749L 346.407 596.668L 346.407 593.735L 346.407 592.654L 345.326 592.654L 339.223 592.654L 339.458 590.409L 340.003 587.949L 340.732 585.297L 341.517 582.478L 342.241 579.461L 342.755 576.322L 342.925 573.086L 342.616 569.779L 341.736 566.457L 340.579 563.656L 339.227 561.21L 337.783 559.21L 336.283 557.599L 334.759 556.308L 332.865 555.039L 331.041 554.027L 329.345 553.137L 327.84 552.235L 326.709 551.315L 325.817 550.183L 325.207 548.746L 324.96 547.411L 324.912 545.811L 325.082 543.907L 325.488 541.657L 330.532 541.657L 330.532 545.671L 331.612 546.752L 335.666 546.752L 336.747 545.671L 336.747 541.657L 340.515 533.277L 343.718 525.107L 346.389 517.136L 348.564 509.352L 350.303 501.607L 351.598 494.033L 352.485 486.617L 353.001 479.347L 353.181 472.21L 352.989 463.46L 352.403 454.872L 351.526 446.399L 350.468 437.985L 349.322 429.418L 348.224 420.793L 347.294 412.049L 346.648 403.126L 346.407 393.965L 346.407 389.951L 345.326 388.87L 339.414 388.87L 339.414 383.877L 345.382 383.877L 346.407 382.746L 346.407 378.426z"/>
<path style="stroke:#000000; stroke-width:0.72; fill:none" d="M 136.423 602.012L 135.025 597.461L 133.689 593.39L 132.385 589.774L 131.084 586.586L 129.755 583.799L 127.923 580.713L 125.924 578.208L 123.689 576.228L 121.275 574.77L 118.527 573.683L 115.385 572.915L 111.792 572.413L 107.687 572.126L 103.012 572.002L 98.9005 571.985L 94.3725 572.011L 89.3991 572.056L 83.956 572.094L 78.1372 572.114L 72.1696 572.118L 66.5497 572.11L 61.2112 572.095L 56.316 572.075L 51.8737 572.062L 47.8592 572.065L 44.2476 572.095L 41.0135 572.163L 38.132 572.28L 34.971 572.512L 32.2777 572.859L 30.0021 573.341L 28.0944 573.981L 26.5047 574.8L 24.8743 576.121L 23.571 577.804L 22.4945 579.89L 22.0779 580.92L 21.6848 582.088L 21.324 583.507L 21.0048 585.292L 20.7395 587.553L 20.6261 590.258L 20.8611 593.209L 21.2396 594.961L 21.8456 596.684L 22.7193 598.339L 23.9008 599.882L 24.8531 600.807L 25.9634 601.656L 36.1284 602.474L 46.0815 603.621L 55.9128 604.921L 65.7123 606.194L 75.57 607.264L 85.5759 607.953L 92.4377 608.12L 99.4144 608.005L 106.518 607.574L 113.758 606.793L 121.149 605.629L 128.7 604.046L 136.423 602.012z"/>
<path style="stroke:#000000; stroke-width:0.72; fill:none" d="M 0 608.377L 15.5386 608.377L 20.3823 608.526L 25.7557 608.94L 31.6082 609.569L 37.8894 610.364L 44.5487 611.274L 53.4913 612.521L 62.8607 613.77L 72.5526 614.919L 82.463 615.866L 92.4878 616.507L 99.6373 616.722L 106.601 616.705L 113.184 616.43L 119.256 615.893L 124.862 615.136L 130.069 614.211L 134.946 613.166L 140.937 611.704L 146.635 610.237L 152.194 608.875L 155.73 608.115L 159.311 607.471L 162.977 606.973L 166.767 606.65L 170.605 606.508L 174.157 606.506L 176.577 606.573L 178.452 606.68L 179.907 606.816L 181.102 606.975L 182.199 607.151L 183.358 607.337L 184.741 607.526L 186.061 607.669L 187.681 607.808L 189.678 607.938L 192.123 608.057L 194.605 608.147L 197.508 608.225L 200.876 608.288L 204.756 608.336L 209.192 608.366L 214.228 608.377L 239.701 608.377L 241.739 606.339L 241.739 603.384L 239.701 601.346L 225.447 601.346L 224.316 600.322L 224.316 594.354L 219.323 594.354L 219.323 600.265L 219.323 601.346L 218.242 601.346L 215.309 601.346L 214.228 600.265L 214.228 594.162L 211.983 594.397L 209.522 594.943L 206.871 595.672L 204.052 596.456L 201.035 597.18L 197.896 597.694L 194.66 597.864L 191.352 597.555L 188.03 596.676L 185.229 595.519L 182.784 594.166L 180.784 592.722L 179.173 591.223L 177.882 589.698L 176.613 587.804L 175.601 585.98L 174.711 584.285L 173.809 582.779L 172.888 581.648L 171.757 580.756L 170.32 580.146L 168.985 579.899L 167.385 579.851L 165.481 580.022L 163.231 580.427L 163.231 585.471L 167.245 585.471L 168.326 586.552L 168.326 590.606L 167.245 591.686L 163.231 591.686L 158.213 594.001L 151.937 596.65L 146.575 595.651L 144.032 593.029L 141.796 590.268L 139.787 587.426L 137.927 584.561L 135.852 581.29L 133.745 578.159L 131.483 575.26L 128.942 572.683L 127.031 571.189L 124.905 569.906L 122.526 568.861L 119.859 568.081L 116.865 567.594L 113.509 567.425L 35.5946 567.425L 32.7383 567.557L 30.007 567.973L 27.4287 568.698L 25.0313 569.762L 22.8428 571.192L 21.0582 572.832L 19.4904 574.817L 18.1605 577.169L 17.0895 579.908L 16.2985 583.054L 15.8085 586.629L 15.6404 590.653L 15.6404 601.346L 15.5956 601.346L 15.5386 601.346L 11.5247 601.346L 10.4439 600.265L 10.4439 594.354L 5.45123 594.354L 5.45123 600.322L 4.31955 601.346L 0 601.346L 0 608.377z"/>
<path style="stroke:#000000; stroke-width:0.72; fill:none" d="M 420.437 556.534L 420.437 540.995L 420.586 536.151L 421 530.778L 421.63 524.925L 422.424 518.644L 423.334 511.985L 424.581 503.042L 425.83 493.673L 426.979 483.981L 427.926 474.071L 428.567 464.046L 428.783 456.896L 428.765 449.932L 428.49 443.35L 427.953 437.277L 427.197 431.672L 426.271 426.465L 425.226 421.587L 423.765 415.597L 422.297 409.899L 420.935 404.339L 420.175 400.804L 419.531 397.223L 419.033 393.557L 418.71 389.767L 418.568 385.928L 418.566 382.376L 418.634 379.956L 418.74 378.081L 418.876 376.627L 419.035 375.432L 419.211 374.335L 419.397 373.175L 419.586 371.792L 419.73 370.473L 419.868 368.852L 419.998 366.856L 420.117 364.41L 420.207 361.929L 420.285 359.026L 420.348 355.657L 420.396 351.777L 420.426 347.342L 420.437 342.305L 420.437 316.832L 418.399 314.794L 415.444 314.794L 413.406 316.832L 413.406 331.086L 412.382 332.218L 406.414 332.218L 406.414 337.211L 412.325 337.211L 413.406 337.211L 413.406 338.291L 413.406 341.225L 412.325 342.305L 406.222 342.305L 406.457 344.551L 407.003 347.011L 407.732 349.663L 408.516 352.482L 409.24 355.498L 409.755 358.637L 409.925 361.874L 409.615 365.181L 408.736 368.503L 407.579 371.304L 406.227 373.75L 404.783 375.749L 403.283 377.36L 401.758 378.651L 399.865 379.921L 398.04 380.933L 396.345 381.822L 394.839 382.724L 393.708 383.645L 392.817 384.777L 392.207 386.214L 391.959 387.549L 391.912 389.148L 392.082 391.053L 392.487 393.302L 397.531 393.302L 397.531 389.288L 398.612 388.208L 402.666 388.208L 403.746 389.288L 403.746 393.302L 406.061 398.32L 408.71 404.596L 407.711 409.958L 405.089 412.502L 402.328 414.738L 399.486 416.746L 396.621 418.606L 393.35 420.682L 390.219 422.788L 387.32 425.051L 384.743 427.592L 383.249 429.502L 381.966 431.628L 380.921 434.007L 380.142 436.675L 379.654 439.668L 379.485 443.025L 379.485 520.939L 379.618 523.795L 380.033 526.526L 380.759 529.105L 381.823 531.502L 383.252 533.691L 384.892 535.475L 386.877 537.043L 389.229 538.373L 391.968 539.444L 395.114 540.235L 398.689 540.725L 402.713 540.893L 413.406 540.893L 413.406 540.938L 413.406 540.995L 413.406 545.009L 412.325 546.09L 406.414 546.09L 406.414 551.082L 412.382 551.082L 413.406 552.214L 413.406 556.534L 420.437 556.534z"/>
<path style="stroke:#000000; stroke-width:0.72; fill:none" d="M 414.072 420.111L 409.521 421.509L 405.45 422.845L 401.835 424.148L 398.647 425.449L 395.86 426.778L 392.773 428.611L 390.269 430.61L 388.288 432.844L 386.83 435.258L 385.743 438.006L 384.975 441.148L 384.473 444.742L 384.186 448.847L 384.062 453.522L 384.045 457.633L 384.071 462.161L 384.116 467.134L 384.154 472.578L 384.174 478.396L 384.178 484.364L 384.17 489.984L 384.155 495.322L 384.136 500.218L 384.122 504.66L 384.125 508.674L 384.155 512.286L 384.223 515.52L 384.34 518.401L 384.572 521.562L 384.919 524.256L 385.401 526.531L 386.042 528.439L 386.86 530.029L 388.181 531.659L 389.864 532.962L 391.95 534.039L 392.98 534.456L 394.148 534.849L 395.567 535.21L 397.352 535.529L 399.613 535.794L 402.318 535.907L 405.269 535.672L 407.021 535.294L 408.745 534.688L 410.399 533.814L 411.942 532.633L 412.867 531.68L 413.716 530.57L 414.534 520.405L 415.682 510.452L 416.981 500.621L 418.254 490.821L 419.324 480.964L 420.013 470.958L 420.18 464.096L 420.065 457.119L 419.634 450.016L 418.853 442.775L 417.689 435.385L 416.106 427.834L 414.072 420.111z"/>
<path style="stroke:#000000; stroke-width:0.72; fill:none" d="M 258.874 453.441L 258.874 467.347L 258.882 468.147L 258.082 468.14L 254.47 468.14L 253.671 468.147L 253.678 467.347L 253.678 466.308L 253.154 466.357L 252.675 466.5L 252.24 466.728L 251.672 467.21L 251.205 467.835L 250.84 468.575L 250.577 469.401L 250.416 470.285L 250.359 471.197L 250.406 472.108L 250.557 472.992L 250.813 473.818L 251.173 474.558L 251.64 475.183L 252.212 475.665L 252.653 475.893L 253.142 476.036L 253.678 476.085L 253.678 475.046L 253.671 474.246L 254.47 474.253L 258.082 474.253L 258.882 474.246L 258.874 475.046L 258.874 479.246L 259.165 479.269L 259.553 479.344L 260.023 479.479L 260.663 479.725L 261.374 480.077L 262.048 480.491L 262.742 481.01L 263.438 481.642L 264.119 482.396L 264.768 483.282L 265.367 484.308L 265.9 485.484L 266.35 486.818L 266.633 487.984L 266.846 489.257L 266.979 490.643L 267.026 492.146L 266.979 493.649L 266.846 495.035L 266.633 496.309L 266.35 497.474L 265.9 498.809L 265.367 499.984L 264.768 501.01L 264.119 501.896L 263.438 502.65L 262.742 503.282L 262.048 503.801L 261.374 504.216L 260.663 504.568L 260.023 504.813L 259.553 504.948L 259.165 505.023L 258.874 505.046L 258.874 509.247L 258.882 510.046L 258.082 510.039L 254.47 510.039L 253.671 510.046L 253.678 509.247L 253.678 508.207L 253.142 508.256L 252.653 508.399L 252.212 508.627L 251.64 509.109L 251.173 509.735L 250.813 510.475L 250.557 511.301L 250.406 512.184L 250.359 513.096L 250.416 514.008L 250.577 514.891L 250.84 515.717L 251.205 516.457L 251.672 517.082L 252.24 517.565L 252.675 517.792L 253.154 517.935L 253.678 517.985L 253.678 516.945L 253.671 516.145L 254.47 516.153L 258.082 516.153L 258.882 516.145L 258.874 516.945L 258.874 530.851L 259.49 530.798L 260.207 530.627L 261.012 530.323L 261.888 529.87L 262.821 529.252L 263.63 528.598L 264.46 527.809L 265.301 526.876L 266.144 525.789L 266.981 524.539L 267.803 523.117L 268.57 521.581L 269.307 519.869L 270.007 517.975L 270.663 515.901L 271.27 513.656L 271.821 511.248L 272.31 508.684L 272.772 505.693L 273.144 502.533L 273.419 499.215L 273.59 495.749L 273.649 492.146L 273.59 488.543L 273.419 485.077L 273.144 481.759L 272.772 478.6L 272.31 475.608L 271.821 473.044L 271.27 470.636L 270.663 468.391L 270.007 466.318L 269.307 464.423L 268.57 462.712L 267.803 461.175L 266.981 459.753L 266.144 458.503L 265.301 457.416L 264.46 456.483L 263.63 455.694L 262.821 455.041L 261.888 454.422L 261.012 453.969L 260.207 453.665L 259.49 453.494L 258.874 453.441z"/>
<path style="stroke:#000000; stroke-width:0.72; fill:none" d="M 118.751 586.479L 104.845 586.479L 104.045 586.486L 104.052 585.687L 104.052 582.075L 104.045 581.275L 104.845 581.283L 105.885 581.283L 105.835 580.759L 105.692 580.279L 105.464 579.845L 104.982 579.276L 104.357 578.809L 103.617 578.444L 102.791 578.181L 101.908 578.021L 100.996 577.964L 100.084 578.011L 99.2006 578.162L 98.3746 578.417L 97.6346 578.778L 97.0091 579.245L 96.5269 579.817L 96.2992 580.258L 96.1563 580.746L 96.1068 581.283L 97.1465 581.283L 97.9462 581.275L 97.9389 582.075L 97.9389 585.687L 97.9462 586.486L 97.1465 586.479L 92.9462 586.479L 92.9229 586.769L 92.8479 587.157L 92.7133 587.628L 92.4676 588.268L 92.1155 588.979L 91.7008 589.653L 91.1821 590.346L 90.5502 591.042L 89.796 591.723L 88.9104 592.372L 87.8843 592.972L 86.7086 593.505L 85.3743 593.954L 84.2086 594.238L 82.935 594.45L 81.5489 594.584L 80.0461 594.631L 78.5432 594.584L 77.1572 594.45L 75.8835 594.238L 74.7179 593.954L 73.3835 593.505L 72.2079 592.972L 71.1818 592.372L 70.2962 591.723L 69.542 591.042L 68.9101 590.346L 68.3913 589.653L 67.9766 588.979L 67.6246 588.268L 67.3788 587.628L 67.2442 587.157L 67.1692 586.769L 67.1459 586.479L 62.9456 586.479L 62.146 586.486L 62.1532 585.687L 62.1532 582.075L 62.146 581.275L 62.9456 581.283L 63.9854 581.283L 63.9359 580.746L 63.793 580.258L 63.5652 579.817L 63.083 579.245L 62.4576 578.778L 61.7176 578.417L 60.8916 578.162L 60.0084 578.011L 59.0965 577.964L 58.1846 578.021L 57.3013 578.181L 56.4754 578.444L 55.7353 578.809L 55.1099 579.276L 54.6277 579.845L 54.3999 580.279L 54.2571 580.759L 54.2076 581.283L 55.2473 581.283L 56.0469 581.275L 56.0397 582.075L 56.0397 585.687L 56.0469 586.486L 55.2473 586.479L 41.341 586.479L 41.3943 587.095L 41.5649 587.812L 41.8688 588.617L 42.3221 589.493L 42.9407 590.426L 43.5941 591.235L 44.3828 592.065L 45.3159 592.906L 46.4029 593.749L 47.6529 594.586L 49.0753 595.408L 50.6116 596.175L 52.3234 596.912L 54.2177 597.612L 56.2911 598.268L 58.5359 598.874L 60.9442 599.425L 63.5083 599.915L 66.4994 600.376L 69.6591 600.748L 72.9771 601.024L 76.4429 601.195L 80.0461 601.254L 83.6493 601.195L 87.1151 601.024L 90.433 600.748L 93.5927 600.376L 96.5838 599.915L 99.1479 599.425L 101.556 598.874L 103.801 598.268L 105.874 597.612L 107.769 596.912L 109.481 596.175L 111.017 595.408L 112.439 594.586L 113.689 593.749L 114.776 592.906L 115.709 592.065L 116.498 591.235L 117.151 590.426L 117.77 589.493L 118.223 588.617L 118.527 587.812L 118.698 587.095L 118.751 586.479z"/>
<path style="stroke:#000000; stroke-width:0.72; fill:none" d="M 397.068 439.809L 397.068 453.715L 397.075 454.515L 396.276 454.508L 392.664 454.508L 391.864 454.515L 391.872 453.715L 391.872 452.676L 391.348 452.725L 390.868 452.868L 390.434 453.096L 389.865 453.578L 389.399 454.203L 389.033 454.943L 388.77 455.769L 388.61 456.653L 388.553 457.565L 388.6 458.476L 388.751 459.36L 389.006 460.186L 389.367 460.926L 389.834 461.551L 390.406 462.033L 390.847 462.261L 391.336 462.404L 391.872 462.453L 391.872 461.414L 391.864 460.614L 392.664 460.621L 396.276 460.621L 397.075 460.614L 397.068 461.414L 397.068 465.614L 397.359 465.637L 397.746 465.712L 398.217 465.847L 398.857 466.093L 399.568 466.445L 400.242 466.859L 400.935 467.378L 401.631 468.01L 402.312 468.764L 402.961 469.65L 403.561 470.676L 404.094 471.852L 404.544 473.186L 404.827 474.352L 405.039 475.625L 405.173 477.011L 405.22 478.514L 405.173 480.017L 405.039 481.403L 404.827 482.677L 404.544 483.842L 404.094 485.177L 403.561 486.352L 402.961 487.378L 402.312 488.264L 401.631 489.018L 400.935 489.65L 400.242 490.169L 399.568 490.584L 398.857 490.936L 398.217 491.181L 397.746 491.316L 397.359 491.391L 397.068 491.414L 397.068 495.615L 397.075 496.414L 396.276 496.407L 392.664 496.407L 391.864 496.414L 391.872 495.615L 391.872 494.575L 391.336 494.624L 390.847 494.767L 390.406 494.995L 389.834 495.477L 389.367 496.103L 389.006 496.843L 388.751 497.669L 388.6 498.552L 388.553 499.464L 388.61 500.376L 388.77 501.259L 389.033 502.085L 389.399 502.825L 389.865 503.45L 390.434 503.933L 390.868 504.16L 391.348 504.303L 391.872 504.353L 391.872 503.313L 391.864 502.513L 392.664 502.521L 396.276 502.521L 397.075 502.513L 397.068 503.313L 397.068 517.219L 397.684 517.166L 398.401 516.995L 399.206 516.691L 400.082 516.238L 401.015 515.62L 401.824 514.966L 402.654 514.177L 403.495 513.244L 404.338 512.157L 405.175 510.907L 405.997 509.485L 406.764 507.949L 407.501 506.237L 408.201 504.343L 408.857 502.269L 409.463 500.024L 410.014 497.616L 410.504 495.052L 410.965 492.061L 411.337 488.901L 411.613 485.583L 411.784 482.117L 411.843 478.514L 411.784 474.911L 411.613 471.445L 411.337 468.127L 410.965 464.967L 410.504 461.976L 410.014 459.412L 409.463 457.004L 408.857 454.759L 408.201 452.686L 407.501 450.791L 406.764 449.08L 405.997 447.543L 405.175 446.121L 404.338 444.871L 403.495 443.784L 402.654 442.851L 401.824 442.062L 401.015 441.409L 400.082 440.79L 399.206 440.337L 398.401 440.033L 397.684 439.862L 397.068 439.809z"/>
<path style="stroke:#000000; stroke-width:0.72; fill:none" d="M 245.619 567.848L 231.712 567.848L 230.913 567.855L 230.92 567.055L 230.92 563.444L 230.913 562.644L 231.712 562.651L 232.752 562.651L 232.702 562.127L 232.56 561.648L 232.332 561.213L 231.85 560.645L 231.224 560.178L 230.484 559.813L 229.658 559.55L 228.775 559.39L 227.863 559.333L 226.951 559.379L 226.068 559.53L 225.242 559.786L 224.502 560.147L 223.877 560.613L 223.394 561.186L 223.167 561.627L 223.024 562.115L 222.974 562.651L 224.014 562.651L 224.814 562.644L 224.806 563.444L 224.806 567.055L 224.814 567.855L 224.014 567.848L 219.814 567.848L 219.79 568.138L 219.715 568.526L 219.581 568.996L 219.335 569.637L 218.983 570.347L 218.568 571.021L 218.049 571.715L 217.418 572.411L 216.663 573.092L 215.778 573.741L 214.752 574.34L 213.576 574.874L 212.242 575.323L 211.076 575.606L 209.802 575.819L 208.416 575.953L 206.913 575.999L 205.411 575.953L 204.025 575.819L 202.751 575.606L 201.585 575.323L 200.251 574.874L 199.075 574.34L 198.049 573.741L 197.164 573.092L 196.409 572.411L 195.777 571.715L 195.259 571.021L 194.844 570.347L 194.492 569.637L 194.246 568.996L 194.112 568.526L 194.037 568.138L 194.013 567.848L 189.813 567.848L 189.013 567.855L 189.021 567.055L 189.021 563.444L 189.013 562.644L 189.813 562.651L 190.853 562.651L 190.803 562.115L 190.66 561.627L 190.433 561.186L 189.95 560.613L 189.325 560.147L 188.585 559.786L 187.759 559.53L 186.876 559.379L 185.964 559.333L 185.052 559.39L 184.169 559.55L 183.343 559.813L 182.603 560.178L 181.977 560.645L 181.495 561.213L 181.267 561.648L 181.124 562.127L 181.075 562.651L 182.115 562.651L 182.914 562.644L 182.907 563.444L 182.907 567.055L 182.914 567.855L 182.115 567.848L 168.208 567.848L 168.262 568.463L 168.432 569.181L 168.736 569.985L 169.189 570.861L 169.808 571.794L 170.462 572.604L 171.25 573.433L 172.183 574.274L 173.27 575.118L 174.52 575.955L 175.943 576.777L 177.479 577.544L 179.191 578.281L 181.085 578.98L 183.158 579.636L 185.403 580.243L 187.812 580.794L 190.376 581.284L 193.367 581.745L 196.527 582.117L 199.844 582.392L 203.31 582.563L 206.913 582.622L 210.517 582.563L 213.982 582.392L 217.3 582.117L 220.46 581.745L 223.451 581.284L 226.015 580.794L 228.424 580.243L 230.668 579.636L 232.742 578.98L 234.636 578.281L 236.348 577.544L 237.884 576.777L 239.307 575.955L 240.557 575.118L 241.644 574.274L 242.577 573.433L 243.365 572.604L 244.019 571.794L 244.637 570.861L 245.091 569.985L 245.395 569.181L 245.565 568.463L 245.619 567.848z"/>
<path style="stroke:#000000; stroke-width:0.72; fill:none" d="M 5.20411 680.894L 5.20411 634.476L 5.42922 632.662L 5.65528 631.14L 5.93395 629.652L 6.31245 628.075L 6.75488 626.628L 7.24791 625.338L 7.80891 624.141L 8.4379 623.039L 9.50883 621.562L 10.7327 620.296L 12.1475 619.212L 13.759 618.306L 15.5672 617.58L 17.5722 617.032L 18.8801 616.789L 20.2739 616.608L 21.717 616.493L 21.9347 616.697L 21.9347 622.471L 21.9347 623.552L 23.0154 623.552L 26.1014 623.552L 27.1821 622.471L 27.1821 616.636L 27.3859 616.432L 33.0914 616.622L 38.9081 617.038L 44.5344 617.641L 50.1026 618.414L 55.9424 619.389L 61.3758 620.426L 67.0207 621.611L 71.7649 622.669L 76.5442 623.779L 81.1595 624.88L 85.89 626.027L 89.632 626.934L 93.8284 627.948L 98.2414 629L 102.333 629.96L 108.951 631.468L 116.756 633.147L 124.754 634.741L 132.776 636.197L 141.778 637.647L 147.648 638.486L 153.5 639.239L 160.038 639.98L 166.671 640.626L 173.351 641.171L 180.077 641.615L 184.756 639.835L 190.13 634.46L 191.59 630.057L 203.34 621.251L 203.587 621.017L 203.587 630.359L 180.337 653.609L 57.9652 653.609L 57.744 653.448L 57.744 628.547L 56.9073 626.073L 56.8957 626.057L 53.6567 624.456L 34.3169 624.456L 30.328 627.695L 30.0757 628.897L 26.0869 632.136L 23.7238 632.136L 19.8057 629.183L 15.8877 626.23L 14.9841 626.23L 10.9489 629.732L 10.9489 685.638L 14.9841 689.14L 15.8877 689.14L 19.8057 686.187L 23.7238 683.234L 26.0869 683.234L 30.0757 686.473L 30.328 687.675L 34.3169 690.914L 53.6567 690.914L 56.8957 689.312L 56.9073 689.297L 57.744 686.823L 57.744 661.922L 57.9652 661.761L 180.337 661.761L 203.587 685.01L 203.587 694.353L 203.34 694.119L 191.59 685.313L 190.13 680.91L 184.756 675.535L 180.077 673.755L 170.75 674.399L 161.514 675.237L 152.534 676.25L 144.4 677.338L 136.23 678.594L 128.441 679.941L 121.31 681.299L 114.558 682.684L 108.19 684.072L 102.471 685.375L 96.2908 686.829L 89.9608 688.358L 84.2912 689.732L 75.619 691.808L 67.1111 693.74L 59.3437 695.345L 51.3012 696.769L 43.486 697.856L 35.4219 698.607L 27.3887 698.938L 27.1821 698.734L 27.1821 692.898L 26.1014 691.818L 23.0154 691.818L 21.9347 692.898L 21.9347 698.673L 21.7192 698.877L 20.2746 698.762L 18.8801 698.581L 17.5722 698.338L 16.2134 697.992L 14.9421 697.568L 13.7584 697.063L 12.147 696.158L 10.7327 695.074L 9.50858 693.808L 8.43757 692.33L 7.51967 690.642L 6.75488 688.741L 6.21166 686.912L 5.76867 684.882L 5.48559 683.115L 5.20411 680.894z"/>
<path style="stroke:#000000; stroke-width:0.72; fill:none" d="M 413.602 686.654L 413.602 640.236L 413.377 638.423L 413.151 636.9L 412.872 635.412L 412.494 633.836L 412.051 632.389L 411.558 631.098L 410.997 629.902L 410.368 628.799L 409.297 627.322L 408.073 626.057L 406.659 624.972L 405.047 624.067L 403.239 623.34L 401.234 622.793L 399.926 622.549L 398.532 622.369L 397.089 622.254L 396.871 622.457L 396.871 628.232L 396.871 629.312L 395.791 629.312L 392.705 629.312L 391.624 628.232L 391.624 622.396L 391.42 622.192L 385.715 622.383L 379.898 622.798L 374.272 623.401L 368.703 624.175L 362.864 625.149L 357.43 626.186L 351.785 627.371L 347.041 628.429L 342.262 629.54L 337.647 630.64L 332.916 631.788L 329.174 632.695L 324.978 633.708L 320.565 634.76L 316.473 635.72L 309.855 637.228L 302.05 638.907L 294.052 640.501L 286.03 641.957L 277.028 643.407L 271.158 644.246L 265.306 644.999L 258.768 645.74L 252.135 646.386L 245.456 646.931L 238.729 647.375L 234.05 645.595L 228.676 640.221L 227.216 635.817L 215.467 627.011L 215.219 626.777L 215.219 636.12L 238.469 659.37L 360.841 659.37L 361.062 659.208L 361.062 634.307L 361.899 631.833L 361.91 631.818L 365.149 630.216L 384.489 630.216L 388.478 633.455L 388.73 634.657L 392.719 637.896L 395.082 637.896L 399 634.943L 402.918 631.99L 403.822 631.99L 407.857 635.492L 407.857 691.398L 403.822 694.9L 402.918 694.9L 399 691.947L 395.082 688.994L 392.719 688.994L 388.73 692.233L 388.478 693.436L 384.489 696.674L 365.149 696.674L 361.91 695.073L 361.899 695.058L 361.062 692.584L 361.062 667.682L 360.841 667.521L 238.469 667.521L 215.219 690.771L 215.219 700.113L 215.467 699.879L 227.216 691.073L 228.676 686.67L 234.05 681.296L 238.729 679.515L 248.056 680.159L 257.292 680.998L 266.272 682.01L 274.406 683.098L 282.576 684.354L 290.365 685.701L 297.496 687.059L 304.248 688.445L 310.616 689.832L 316.335 691.135L 322.515 692.589L 328.845 694.118L 334.515 695.492L 343.187 697.568L 351.695 699.5L 359.462 701.106L 367.505 702.529L 375.32 703.616L 383.384 704.367L 391.417 704.698L 391.624 704.495L 391.624 698.659L 392.705 697.578L 395.791 697.578L 396.871 698.659L 396.871 704.433L 397.087 704.637L 398.532 704.522L 399.926 704.342L 401.234 704.098L 402.593 703.753L 403.864 703.328L 405.048 702.824L 406.659 701.918L 408.073 700.834L 409.298 699.568L 410.369 698.091L 411.286 696.402L 412.051 694.502L 412.594 692.672L 413.037 690.642L 413.321 688.875L 413.602 686.654z"/>
<path style="stroke:#000000; stroke-width:0.72; fill:none" d="M 591.148 318.345L 596.304 318.345L 596.304 307.168L 596.319 307.09L 596.361 307.027L 596.422 306.983L 596.459 306.97L 596.498 306.964L 600.159 307.393L 603.68 308.408L 606.744 310.11L 609.164 312.52L 610.928 315.558L 612.097 319.023L 612.796 322.685L 609.228 322.685L 554.29 322.685L 551.712 323.256L 534.053 335.19L 533.955 346.121L 533.919 350.196L 533.907 351.482L 533.853 357.579L 533.821 361.127L 551.874 373.134L 554.29 373.632L 609.228 373.632L 612.796 373.632L 612.097 377.294L 610.928 380.759L 609.164 383.797L 606.744 386.207L 603.68 387.909L 600.159 388.924L 596.5 389.353L 596.424 389.335L 596.362 389.291L 596.32 389.227L 596.308 389.189L 596.304 389.149L 596.304 377.972L 591.148 377.972L 591.148 389.208L 591.144 389.253L 591.13 389.294L 591.108 389.331L 591.08 389.36L 581.565 388.988L 570.497 387.772L 559.45 385.917L 548.248 383.567L 536.709 380.862L 527.292 378.58L 517.469 376.235L 507.156 373.896L 496.264 371.631L 484.707 369.51L 484.644 369.497L 484.44 369.425L 484.277 369.328L 484.009 369.038L 483.904 368.805L 483.928 368.135L 484.092 367.625L 484.173 365.84L 484.012 365.173L 478.18 362.463L 475.914 364.539L 475.442 366.263L 475.441 366.799L 474.278 367.868L 463.27 366.424L 451.612 365.217L 450.22 363.657L 450.22 363.657L 450.22 361.383L 446.36 360.47L 446.15 361.224L 446.144 361.383L 446.144 363.117L 444.505 364.641L 438.251 364.231L 440.785 360.85L 447.056 352.481L 448.497 350.196L 448.497 346.121L 447.056 343.836L 440.785 335.467L 438.251 332.086L 444.505 331.676L 444.615 331.672L 444.939 331.706L 445.211 331.792L 445.574 332.01L 445.825 332.266L 446.144 333.2L 446.144 334.934L 446.15 335.093L 446.36 335.847L 450.22 334.934L 450.22 332.698L 450.22 332.622L 451.612 331.1L 464.916 329.696L 477.377 327.989L 489.075 326.042L 500.09 323.918L 510.503 321.68L 520.393 319.393L 529.842 317.119L 538.929 314.922L 549.962 312.368L 560.71 310.161L 571.332 308.429L 581.987 307.297L 591.081 306.958L 591.109 306.989L 591.131 307.025L 591.144 307.065L 591.148 307.108L 591.148 318.345z"/>
<path style="stroke:#000000; stroke-width:0.72; fill:none" d="M 810.079 363.867L 810.079 363.81L 810.079 361.575L 813.938 360.661L 814.149 361.415L 814.155 361.575L 814.155 363.308L 814.474 364.242L 814.725 364.499L 815.088 364.716L 815.36 364.802L 815.684 364.836L 815.794 364.832L 822.048 364.422L 819.514 361.041L 813.243 352.673L 811.802 350.388L 811.802 346.312L 813.243 344.027L 819.514 335.659L 822.048 332.277L 815.794 331.867L 814.155 333.391L 814.155 335.125L 814.149 335.284L 814.08 335.672L 813.938 336.039L 810.079 335.125L 810.079 332.889L 810.079 332.813L 808.687 331.291L 794.771 329.813L 781.776 328.004L 769.61 325.939L 758.181 323.69L 747.397 321.329L 737.164 318.93L 724.794 315.937L 712.979 313.151L 701.529 310.722L 690.253 308.801L 678.961 307.538L 669.218 307.149L 669.19 307.178L 669.169 307.214L 669.155 307.255L 669.15 307.3L 669.15 321.349L 663.995 321.349L 663.995 307.359L 663.983 307.291L 663.951 307.233L 663.903 307.189L 663.843 307.162L 663.543 307.169L 659.586 307.697L 655.869 308.925L 654.216 309.84L 652.747 310.961L 651.472 312.286L 650.389 313.802L 648.769 317.293L 647.783 321.153L 647.218 325.141L 647.218 371.559L 647.783 375.546L 648.769 379.406L 650.389 382.897L 651.472 384.413L 652.747 385.738L 654.216 386.859L 655.869 387.774L 659.586 389.002L 663.543 389.53L 663.837 389.539L 663.898 389.515L 663.948 389.47L 663.982 389.411L 663.995 389.34L 663.995 375.35L 669.15 375.35L 669.15 389.4L 669.155 389.444L 669.169 389.485L 669.191 389.521L 669.219 389.552L 678.312 389.211L 688.967 388.079L 699.589 386.347L 710.337 384.141L 721.37 381.586L 730.457 379.389L 739.906 377.115L 749.796 374.828L 760.209 372.591L 771.224 370.466L 782.922 368.519L 795.383 366.812L 808.687 365.409L 810.079 363.867z"/>
<path style="stroke:#000000; stroke-width:0.72; fill:none" d="M 631.816 275.044L 627.493 275.044L 618.847 283.689L 618.847 288.012L 627.493 296.658L 631.816 296.658L 640.462 288.012L 640.462 283.689L 631.816 275.044z"/>
<path style="stroke:#000000; stroke-width:0.72; fill:none" d="M 453.989 293.463L 454.289 293.063L 454.572 292.65L 454.839 292.226L 455.089 291.791L 455.322 291.345L 455.537 290.888L 455.734 290.422L 455.912 289.946L 456.07 289.461L 456.209 288.967L 456.328 288.465L 456.427 287.956L 456.504 287.439L 456.56 286.916L 456.594 286.386L 456.605 285.851L 456.594 285.315L 456.56 284.786L 456.504 284.263L 456.427 283.746L 456.328 283.237L 456.209 282.735L 456.07 282.241L 455.912 281.756L 455.734 281.28L 455.537 280.813L 455.322 280.357L 455.089 279.911L 454.839 279.475L 454.572 279.051L 454.289 278.639L 453.989 278.239"/>
<path style="stroke:#000000; stroke-width:0.72; fill:none" d="M 818.155 281.724L 814.028 285.851L 818.155 289.977L 822.282 285.851L 818.155 281.724z"/>
<path style="stroke:#000000; stroke-width:0.72; fill:none" d="M 454.113 278.402L 447.175 278.544L 445.746 278.794L 432.064 285.851L 445.746 292.907L 447.175 293.158L 454.113 293.299"/>
<path style="stroke:#000000; stroke-width:0.72; fill:none" d="M 676.458 350.388L 674.135 355.798L 667.197 355.657L 665.768 355.406L 652.086 348.35L 665.768 341.293L 667.197 341.042L 674.135 340.901L 676.458 346.312L 676.458 350.388z"/>
<path style="stroke:#000000; stroke-width:0.72; fill:none" d="M 810.116 451.694L 800.597 451.325L 789.529 450.108L 778.483 448.254L 767.28 445.904L 755.742 443.198L 746.324 440.916L 736.501 438.572L 726.188 436.232L 715.296 433.968L 703.739 431.846L 703.676 431.833L 703.472 431.762L 703.31 431.665L 703.042 431.375L 702.936 431.141L 702.961 430.472L 703.125 429.961L 703.205 428.177L 703.044 427.51L 704.239 426.528L 707.687 424.498L 712.074 422.822L 717.4 421.499L 722.983 420.612L 729.323 420.011L 736.42 419.694L 744.274 419.662L 752.885 419.915L 752.853 423.463L 770.906 435.47L 773.323 435.968L 828.26 435.968L 831.828 435.968L 831.129 439.631L 829.96 443.096L 828.196 446.134L 825.776 448.543L 822.712 450.246L 819.191 451.261L 815.51 451.692L 815.441 451.67L 815.385 451.625L 815.347 451.563L 815.333 451.489L 815.333 445.712L 814.252 444.631L 811.258 444.631L 810.177 444.631L 810.177 445.712L 810.177 451.548L 810.173 451.589L 810.161 451.628L 810.142 451.663L 810.116 451.694z"/>
<path style="stroke:#000000; stroke-width:0.72; fill:none" d="M 630.368 576.172L 630.368 502.837L 630.12 503.07L 618.371 511.876L 616.911 516.28L 611.537 521.654L 606.858 523.434L 600.129 522.99L 593.447 522.444L 586.812 521.798L 580.273 521.057L 574.419 520.304L 568.546 519.464L 559.541 518.013L 551.518 516.557L 543.516 514.962L 535.715 513.283L 529.091 511.773L 525.84 511.012L 522.384 510.192L 518.722 509.312L 515.638 508.566L 512.643 507.84L 507.912 506.692L 503.295 505.592L 498.512 504.48L 493.768 503.423L 488.125 502.239L 482.685 501.201L 476.845 500.228L 471.277 499.456L 465.645 498.854L 459.827 498.439L 454.124 498.251L 453.917 498.454L 453.917 504.291L 452.836 505.372L 449.842 505.372L 448.761 504.291L 448.761 498.513L 448.546 498.31L 447.09 498.424L 445.678 498.605L 444.353 498.852L 442.348 499.399L 440.54 500.126L 438.928 501.031L 437.514 502.116L 436.29 503.381L 435.219 504.858L 434.59 505.961L 434.029 507.157L 433.536 508.448L 433.093 509.895L 432.715 511.471L 432.436 512.959L 432.21 514.482L 431.985 516.296L 431.985 562.713L 432.266 564.934L 432.549 566.701L 432.992 568.731L 433.536 570.561L 434.301 572.461L 435.218 574.15L 436.289 575.627L 437.514 576.893L 438.928 577.977L 440.539 578.883L 441.723 579.387L 442.994 579.812L 444.353 580.157L 445.677 580.403L 447.09 580.585L 448.546 580.699L 448.761 580.495L 448.761 574.718L 449.842 573.637L 452.836 573.637L 453.917 574.718L 453.917 580.554L 454.124 580.758L 462.158 580.429L 470.229 579.68L 478.044 578.594L 486.093 577.171L 493.859 575.566L 502.373 573.633L 511.044 571.558L 516.716 570.183L 523.044 568.655L 529.229 567.199L 534.952 565.896L 541.318 564.508L 548.072 563.122L 555.207 561.763L 562.996 560.416L 571.169 559.159L 579.306 558.07L 588.288 557.057L 597.528 556.219L 606.858 555.574L 611.537 557.355L 616.911 562.729L 618.371 567.133L 630.12 575.938L 630.368 576.172z"/>
<path style="stroke:#000000; stroke-width:0.72; fill:none" d="M 640.292 576.396L 640.292 503.061L 640.54 503.295L 652.289 512.1L 653.749 516.504L 659.123 521.878L 663.802 523.659L 673.132 523.014L 682.372 522.176L 691.354 521.163L 699.491 520.074L 707.664 518.817L 715.453 517.47L 722.588 516.111L 729.342 514.725L 735.708 513.337L 741.431 512.034L 747.616 510.578L 753.944 509.05L 759.616 507.675L 768.287 505.6L 776.801 503.667L 784.567 502.062L 792.616 500.639L 800.431 499.553L 808.502 498.804L 816.536 498.475L 816.743 498.679L 816.743 504.515L 817.824 505.596L 820.818 505.596L 821.899 504.515L 821.899 498.738L 822.114 498.534L 823.57 498.648L 824.983 498.83L 826.307 499.076L 827.666 499.421L 828.937 499.846L 830.121 500.35L 831.732 501.256L 833.146 502.34L 834.371 503.606L 835.442 505.083L 836.359 506.772L 837.124 508.672L 837.667 510.502L 838.11 512.532L 838.394 514.299L 838.675 516.52L 838.675 562.938L 838.45 564.751L 838.224 566.274L 837.945 567.762L 837.567 569.338L 837.124 570.785L 836.631 572.076L 836.07 573.272L 835.441 574.375L 834.37 575.852L 833.146 577.117L 831.732 578.202L 830.12 579.107L 828.312 579.834L 826.307 580.381L 824.982 580.628L 823.57 580.809L 822.114 580.923L 821.899 580.719L 821.899 574.942L 820.818 573.861L 817.824 573.861L 816.743 574.942L 816.743 580.779L 816.536 580.982L 810.833 580.794L 805.015 580.38L 799.383 579.777L 793.815 579.005L 787.974 578.032L 782.535 576.994L 776.892 575.81L 772.148 574.753L 767.365 573.641L 762.748 572.541L 758.017 571.393L 755.022 570.667L 751.938 569.921L 748.276 569.041L 744.82 568.221L 741.569 567.46L 734.945 565.95L 727.144 564.271L 719.142 562.676L 711.119 561.22L 702.114 559.769L 696.241 558.929L 690.387 558.176L 683.848 557.435L 677.213 556.789L 670.531 556.243L 663.802 555.799L 659.123 557.579L 653.749 562.953L 652.289 567.357L 640.54 576.163L 640.292 576.396z"/>
<path style="stroke:#000000; stroke-width:0.72; fill:none" d="M 433.123 691.383L 433.123 644.965L 433.404 642.743L 433.687 640.977L 434.131 638.946L 434.674 637.117L 435.439 635.217L 436.357 633.528L 438.651 630.785L 440.066 629.701L 441.678 628.795L 445.491 627.521L 447.511 627.176L 449.684 626.979L 449.899 627.183L 449.899 641.173L 455.055 641.173L 455.055 627.124L 455.261 626.92L 467.539 627.594L 479.5 629.136L 492.144 631.499L 503.353 634.006L 516.33 637.128L 528.612 640.069L 540.903 642.837L 557.349 646.096L 574.038 648.764L 590.911 650.767L 607.996 652.104L 612.675 650.323L 618.049 644.949L 619.509 640.546L 631.258 631.74L 639.904 631.74L 651.654 640.546L 653.113 644.949L 658.488 650.323L 663.167 652.104L 680.56 650.737L 697.733 648.679L 714.714 645.933L 731.439 642.582L 748.805 638.585L 759.839 635.912L 771.036 633.258L 782.305 630.827L 793.605 628.833L 804.662 627.499L 815.901 626.92L 816.107 627.124L 816.107 641.173L 821.263 641.173L 821.263 627.183L 821.478 626.979L 823.652 627.176L 825.671 627.521L 827.677 628.069L 829.485 628.795L 832.511 630.785L 834.806 633.528L 836.489 637.117L 837.191 639.601L 837.664 642.104L 838.04 644.965L 838.04 691.383L 837.758 693.604L 837.475 695.37L 837.032 697.401L 836.489 699.23L 835.724 701.131L 834.806 702.82L 832.511 705.562L 831.096 706.647L 829.485 707.552L 825.671 708.826L 823.652 709.172L 821.478 709.368L 821.263 709.165L 821.263 695.174L 816.107 695.174L 816.107 709.224L 815.901 709.427L 803.624 708.754L 791.662 707.211L 779.018 704.848L 767.81 702.341L 754.833 699.219L 742.551 696.279L 730.259 693.51L 713.813 690.251L 697.124 687.583L 680.252 685.58L 663.167 684.244L 658.488 686.024L 653.113 691.398L 651.654 695.802L 639.904 704.608L 631.258 704.608L 619.509 695.802L 618.049 691.398L 612.675 686.024L 607.996 684.244L 590.603 685.611L 573.43 687.668L 556.448 690.414L 539.723 693.765L 522.357 697.763L 511.324 700.435L 500.126 703.089L 488.858 705.52L 477.557 707.515L 466.5 708.848L 455.261 709.427L 455.055 709.224L 455.055 695.174L 449.899 695.174L 449.899 709.165L 449.684 709.368L 447.51 709.171L 445.491 708.826L 443.486 708.279L 441.677 707.552L 438.651 705.562L 436.356 702.819L 434.674 699.23L 433.972 696.746L 433.499 694.243L 433.123 691.383z"/>
<path style="stroke:#000000; stroke-width:0.72; fill:none" d="M 596.058 563.462L 590.252 563.549L 584.433 563.963L 578.802 564.565L 573.234 565.338L 567.393 566.311L 561.954 567.349L 556.311 568.532L 552.092 569.471L 547.935 570.431L 543.971 571.371L 539.477 572.453L 535.223 573.484L 530.819 574.553L 525.937 575.725L 521.315 576.811L 514.46 578.372L 506.563 580.071L 498.562 581.667L 490.538 583.123L 481.533 584.574L 475.661 585.414L 469.806 586.167L 463.267 586.908L 456.632 587.554L 449.95 588.1L 443.221 588.544L 452.095 600.316L 452.069 608.937L 443.221 620.684L 451.39 621.237L 459.489 621.939L 467.519 622.79L 474.837 623.703L 481.97 624.72L 489.131 625.866L 495.75 627.034L 502.006 628.232L 507.053 629.259L 512.216 630.362L 516.304 631.271L 520.525 632.238L 525.161 633.324L 530.212 634.53L 534.782 635.635L 539.035 636.667L 547.505 638.697L 556.219 640.676L 563.985 642.281L 572.034 643.704L 579.85 644.789L 587.92 645.539L 595.955 645.868L 596.162 645.664L 596.162 639.828L 597.242 638.747L 600.237 638.747L 601.317 639.828L 601.317 645.605L 601.533 645.808L 602.622 645.73L 603.706 645.612L 604.741 645.458L 605.726 645.267L 607.731 644.719L 609.539 643.993L 611.15 643.087L 612.565 642.003L 613.789 640.737L 614.86 639.26L 615.338 638.442L 615.778 637.571L 616.18 636.647L 616.543 635.671L 616.985 634.224L 617.364 632.647L 617.643 631.159L 617.869 629.637L 618.094 627.823L 618.094 581.405L 617.906 579.874L 617.718 578.545L 617.529 577.417L 617.245 576.042L 616.916 574.755L 616.543 573.558L 615.778 571.657L 614.86 569.969L 613.789 568.491L 612.565 567.226L 611.151 566.141L 609.54 565.236L 608.66 564.85L 607.731 564.509L 606.753 564.213L 605.726 563.962L 604.402 563.715L 602.99 563.534L 601.426 563.522L 601.317 569.401L 600.237 570.481L 597.242 570.481L 596.162 569.401L 596.058 563.462z"/>
<path style="stroke:#000000; stroke-width:0.72; fill:none" d="M 669.216 645.706L 669.324 639.828L 670.405 638.747L 673.399 638.747L 674.48 639.828L 674.583 645.766L 680.39 645.679L 686.208 645.265L 691.839 644.663L 697.408 643.891L 703.248 642.917L 708.687 641.879L 714.331 640.696L 718.55 639.757L 722.706 638.797L 726.671 637.857L 731.165 636.775L 735.419 635.745L 739.823 634.675L 744.704 633.503L 749.326 632.417L 756.181 630.857L 764.079 629.157L 772.08 627.562L 780.104 626.105L 789.108 624.654L 794.981 623.814L 800.835 623.061L 807.375 622.32L 814.01 621.674L 820.692 621.129L 827.421 620.684L 818.547 608.912L 818.572 600.291L 827.421 588.544L 819.252 587.991L 811.153 587.289L 803.122 586.438L 795.805 585.525L 788.671 584.508L 781.51 583.362L 774.891 582.194L 768.636 580.996L 763.589 579.969L 758.426 578.866L 754.337 577.957L 750.116 576.99L 745.48 575.904L 740.43 574.698L 735.86 573.593L 731.606 572.562L 723.136 570.532L 714.422 568.552L 706.656 566.948L 698.607 565.524L 690.792 564.439L 682.722 563.689L 674.687 563.36L 674.48 563.564L 674.48 569.401L 673.399 570.481L 670.405 570.481L 669.324 569.401L 669.324 563.623L 669.109 563.42L 668.02 563.499L 666.936 563.616L 665.901 563.771L 664.916 563.961L 662.911 564.509L 661.103 565.235L 659.491 566.141L 658.076 567.225L 656.853 568.491L 655.782 569.968L 655.303 570.786L 654.864 571.657L 654.462 572.581L 654.099 573.557L 653.656 575.005L 653.278 576.581L 652.999 578.069L 652.773 579.591L 652.548 581.405L 652.548 627.823L 652.735 629.354L 652.923 630.683L 653.112 631.811L 653.397 633.187L 653.725 634.473L 654.099 635.671L 654.863 637.571L 655.781 639.259L 656.852 640.737L 658.076 642.003L 659.491 643.087L 661.102 643.992L 661.982 644.378L 662.91 644.719L 663.889 645.015L 664.916 645.267L 666.239 645.513L 667.651 645.694L 669.216 645.706z"/>
<path style="stroke:#000000; stroke-width:0.72; fill:none" d="M 652.383 497.846L 652.383 451.428L 652.609 449.615L 652.835 448.092L 653.113 446.604L 653.492 445.028L 653.934 443.581L 654.298 442.604L 654.699 441.68L 655.139 440.809L 655.617 439.991L 656.688 438.514L 657.912 437.249L 659.327 436.164L 660.938 435.259L 662.747 434.532L 664.752 433.985L 665.792 433.784L 666.888 433.625L 668.04 433.506L 669.164 433.431L 669.164 447.637L 674.32 447.637L 674.32 433.381L 679.205 433.523L 684.187 433.832L 689.264 434.308L 694.129 434.908L 698.799 435.606L 703.721 436.452L 709.381 437.544L 714.343 438.592L 719.282 439.698L 724.817 440.989L 730.895 442.451L 736.211 443.742L 741.678 445.061L 746.475 446.203L 750.929 447.242L 755.838 448.354L 760.568 449.388L 765.119 450.344L 769.556 451.234L 774.32 452.142L 779.039 452.99L 790.905 454.887L 802.9 456.452L 815.003 457.678L 827.214 458.565L 818.408 470.314L 818.408 478.96L 827.214 490.71L 813.515 491.728L 799.951 493.174L 786.543 495.045L 773.125 497.355L 760.051 499.998L 754.457 501.23L 748.672 502.555L 743.167 503.854L 740.619 504.467L 738.031 505.095L 735.428 505.726L 732.824 506.357L 730.145 507.005L 727.204 507.713L 724.546 508.347L 722.171 508.907L 720.519 509.292L 718.55 509.744L 716.651 510.172L 714.822 510.578L 713.062 510.96L 710.149 511.573L 706.986 512.207L 703.913 512.787L 700.931 513.315L 697.193 513.921L 693.607 514.437L 689.819 514.905L 685.857 515.303L 681.953 515.601L 678.108 515.797L 674.32 515.893L 674.32 501.638L 669.164 501.638L 669.164 515.843L 667.65 515.734L 666.151 515.548L 664.752 515.29L 663.724 515.038L 662.746 514.742L 661.817 514.401L 660.938 514.016L 659.326 513.11L 657.912 512.026L 656.688 510.76L 655.617 509.283L 654.699 507.594L 653.934 505.694L 653.561 504.496L 653.232 503.21L 652.948 501.834L 652.759 500.707L 652.571 499.377L 652.383 497.846z"/>
<path style="stroke:#000000; stroke-width:0.72; fill:none" d="M 610.907 452.422L 610.907 498.84L 610.682 500.653L 610.456 502.176L 610.177 503.664L 609.799 505.24L 609.357 506.687L 608.993 507.664L 608.591 508.588L 608.152 509.459L 607.674 510.277L 606.603 511.754L 605.379 513.019L 603.964 514.104L 602.352 515.009L 600.544 515.736L 598.539 516.283L 597.498 516.484L 596.402 516.643L 595.251 516.762L 594.127 516.837L 594.127 502.631L 588.971 502.631L 588.971 516.887L 584.086 516.745L 579.104 516.436L 574.027 515.96L 569.162 515.36L 564.492 514.662L 559.569 513.816L 553.91 512.724L 548.948 511.676L 544.009 510.57L 538.474 509.279L 532.396 507.817L 527.08 506.526L 521.613 505.207L 516.816 504.065L 512.362 503.026L 507.453 501.914L 502.723 500.88L 498.172 499.924L 493.735 499.034L 488.971 498.126L 484.251 497.278L 472.386 495.381L 460.391 493.816L 448.288 492.59L 436.077 491.703L 444.883 479.954L 444.883 471.308L 436.077 459.558L 449.776 458.54L 463.34 457.094L 476.747 455.223L 490.166 452.913L 503.24 450.27L 508.834 449.038L 514.619 447.713L 520.123 446.414L 522.672 445.801L 525.259 445.173L 527.863 444.542L 530.467 443.911L 533.146 443.263L 536.087 442.555L 538.745 441.921L 541.119 441.361L 542.772 440.976L 544.74 440.524L 546.64 440.096L 548.469 439.69L 550.229 439.308L 553.141 438.695L 556.305 438.061L 559.378 437.481L 562.36 436.953L 566.098 436.347L 569.683 435.831L 573.472 435.363L 577.434 434.965L 581.337 434.667L 585.183 434.471L 588.971 434.375L 588.971 448.63L 594.127 448.63L 594.127 434.425L 595.641 434.535L 597.14 434.72L 598.539 434.978L 599.567 435.23L 600.545 435.526L 601.473 435.867L 602.353 436.253L 603.964 437.158L 605.379 438.242L 606.603 439.508L 607.674 440.985L 608.592 442.674L 609.357 444.574L 609.73 445.772L 610.059 447.058L 610.343 448.434L 610.532 449.561L 610.72 450.891L 610.907 452.422z"/>
<path style="stroke:#000000; stroke-width:0.72; fill:none" d="M 116.247 813.934L 136.483 800.636L 116.247 787.338L 107.509 800.636L 116.247 813.934z"/>
<path style="stroke:#000000; stroke-width:0.72; fill:none" d="M 96.4979 817.392L 103.742 800.636L 96.4979 783.88L 85.4872 800.636L 96.4979 817.392z"/>
<path style="stroke:#000000; stroke-width:0.72; fill:none" d="M 71.6134 821.749L 96.4979 817.392L 116.247 813.934L 121.996 800.636L 116.247 787.338L 96.4979 783.88L 71.6134 779.524L 57.7397 800.636L 71.6134 821.749z"/>
<path style="stroke:#000000; stroke-width:0.72; fill:none" d="M 22.7773 800.636L 71.6134 821.749L 80.7406 800.636L 71.6134 779.524L 22.7773 800.636z"/>
<path style="stroke:#000000; stroke-width:0.72; fill:none" d="M 5.30792 823.845L 5.58941 826.066L 5.87249 827.833L 6.31548 829.863L 6.85869 831.693L 8.54138 835.281L 10.8365 838.025L 13.8622 840.014L 15.0459 840.519L 16.3172 840.943L 17.6761 841.289L 19.6965 841.634L 21.8715 841.83L 22.0882 841.627L 22.0882 835.85L 23.169 834.769L 26.1632 834.769L 27.244 835.85L 27.244 841.686L 27.4505 841.89L 32.7683 841.72L 38.1993 841.353L 43.7435 840.789L 48.8405 840.111L 54.0348 839.283L 57.5978 838.646L 61.289 837.934L 64.9806 837.173L 68.2899 836.457L 71.8486 835.657L 75.2313 834.874L 80.4029 833.646L 86.1051 832.269L 91.4129 830.983L 96.6441 829.721L 102.018 828.456L 107.655 827.167L 113.09 825.972L 129.536 822.713L 146.224 820.045L 163.096 818.042L 180.181 816.706L 184.86 818.486L 190.435 824.062L 191.696 828.222L 203.265 836.892L 203.443 837.07L 212.089 837.07L 212.267 836.892L 223.836 828.222L 225.097 824.062L 230.673 818.486L 235.352 816.706L 251.592 817.96L 267.64 819.816L 283.474 822.267L 291.038 823.649L 298.278 825.093L 305.689 826.68L 313.422 828.434L 320.785 830.177L 332.021 832.897L 344.037 835.737L 354.486 837.982L 365.787 839.976L 376.843 841.31L 388.082 841.89L 388.289 841.686L 388.289 835.85L 388.289 834.769L 389.369 834.769L 392.364 834.769L 393.444 835.85L 393.444 841.627L 393.659 841.831L 395.117 841.717L 396.531 841.535L 397.857 841.289L 401.67 840.015L 403.281 839.109L 404.696 838.025L 406.991 835.282L 407.62 834.18L 408.181 832.983L 408.674 831.693L 409.376 829.209L 409.849 826.706L 410.225 823.845L 410.225 777.427L 409.943 775.206L 409.66 773.439L 409.217 771.409L 408.674 769.58L 406.991 765.991L 404.696 763.247L 401.67 761.258L 400.487 760.754L 399.215 760.329L 397.857 759.984L 395.836 759.638L 393.659 759.442L 393.444 759.645L 393.444 765.423L 393.444 766.503L 392.364 766.503L 389.369 766.503L 388.289 765.423L 388.289 759.586L 388.082 759.382L 382.764 759.553L 377.333 759.919L 371.789 760.483L 366.692 761.161L 361.498 761.989L 357.935 762.626L 354.244 763.339L 350.552 764.099L 347.243 764.815L 343.684 765.615L 340.301 766.398L 335.13 767.626L 329.427 769.003L 324.12 770.289L 318.888 771.551L 313.514 772.816L 307.878 774.105L 302.443 775.3L 285.997 778.559L 269.308 781.227L 252.436 783.23L 235.352 784.566L 230.673 782.786L 225.097 777.21L 223.836 773.051L 212.267 764.38L 212.089 764.202L 203.443 764.202L 203.265 764.38L 191.696 773.051L 190.435 777.21L 184.86 782.786L 180.181 784.566L 163.941 783.312L 147.893 781.456L 132.059 779.005L 124.495 777.623L 117.255 776.18L 109.844 774.592L 102.111 772.838L 94.7479 771.095L 83.5115 768.375L 71.4953 765.535L 61.0462 763.29L 49.7456 761.296L 38.6894 759.962L 27.4505 759.383L 27.244 759.586L 27.244 765.423L 26.1632 766.503L 23.169 766.503L 22.0882 766.503L 22.0882 765.423L 22.0882 759.645L 21.8731 759.442L 20.4159 759.556L 19.0019 759.737L 17.6761 759.984L 13.8628 761.258L 12.2513 762.163L 10.8365 763.247L 8.54171 765.99L 7.91273 767.093L 7.35172 768.289L 6.85869 769.58L 6.15682 772.063L 5.68364 774.566L 5.30792 777.427L 5.30792 823.845z"/>
<path style="stroke:#000000; stroke-width:0.72; fill:none" d="M 22.7773 800.636L 57.7397 800.636L 80.7406 800.636L 85.4872 800.636L 103.742 800.636L 107.509 800.636L 121.996 800.636L 136.483 800.636"/>
<path style="stroke:#000000; stroke-width:0.72; fill:none" d="M 299.285 813.934L 279.049 800.636L 299.285 787.338L 308.024 800.636L 299.285 813.934z"/>
<path style="stroke:#000000; stroke-width:0.72; fill:none" d="M 319.035 817.392L 311.791 800.636L 319.035 783.88L 330.045 800.636L 319.035 817.392z"/>
<path style="stroke:#000000; stroke-width:0.72; fill:none" d="M 343.919 821.749L 319.035 817.392L 299.285 813.934L 293.537 800.636L 299.285 787.338L 319.035 783.88L 343.919 779.524L 357.793 800.636L 343.919 821.749z"/>
<path style="stroke:#000000; stroke-width:0.72; fill:none" d="M 392.755 800.636L 357.793 800.636L 334.792 800.636L 330.045 800.636L 311.791 800.636L 308.024 800.636L 293.537 800.636L 279.049 800.636"/>
<path style="stroke:#000000; stroke-width:0.72; fill:none" d="M 392.755 800.636L 343.919 821.749L 334.792 800.636L 343.919 779.524L 392.755 800.636z"/>
<path style="stroke:#000000; stroke-width:0.72; fill:none" d="M 402.747 745.278L 394.164 733.512L 393.936 733.269L 280.907 733.266L 280.686 733.427L 280.686 758.329L 279.85 760.803L 279.838 760.818L 276.599 762.42L 257.259 762.42L 253.27 759.181L 253.018 757.978L 249.029 754.739L 246.666 754.739L 242.748 757.692L 238.83 760.645L 237.926 760.645L 233.891 757.143L 233.891 701.237L 237.926 697.735L 238.83 697.735L 242.748 700.688L 246.666 703.641L 249.029 703.641L 253.018 700.403L 253.27 699.2L 257.259 695.961L 276.599 695.961L 279.838 697.563L 279.85 697.578L 280.686 700.052L 280.686 724.953L 280.907 725.115L 393.937 725.112L 394.164 724.866L 402.97 713.116L 390.759 712.23L 378.656 711.004L 366.661 709.439L 354.796 707.542L 350.076 706.694L 345.312 705.786L 340.875 704.895L 336.324 703.939L 331.594 702.905L 326.685 701.794L 322.232 700.755L 317.435 699.613L 311.967 698.294L 306.651 697.003L 300.573 695.541L 295.039 694.25L 290.099 693.144L 285.137 692.096L 279.478 691.004L 274.555 690.158L 269.885 689.46L 265.02 688.859L 259.943 688.384L 254.962 688.075L 250.272 687.937L 250.079 688.14L 250.079 693.977L 248.998 695.058L 246.004 695.058L 244.923 693.977L 244.923 688.2L 244.708 687.996L 243.251 688.11L 241.839 688.291L 240.515 688.538L 238.509 689.085L 236.701 689.812L 235.09 690.717L 233.675 691.802L 232.451 693.067L 231.38 694.544L 230.751 695.647L 230.19 696.843L 229.697 698.134L 229.255 699.581L 228.876 701.157L 228.598 702.645L 228.371 704.168L 228.146 705.982L 228.146 752.399L 228.428 754.62L 228.711 756.387L 229.154 758.417L 229.697 760.247L 230.462 762.147L 231.38 763.836L 232.451 765.313L 233.675 766.579L 235.089 767.663L 236.701 768.569L 237.884 769.073L 239.156 769.498L 240.515 769.843L 241.838 770.089L 243.251 770.271L 244.708 770.385L 244.923 770.181L 244.923 764.404L 246.004 763.323L 248.998 763.323L 250.079 764.404L 250.079 770.24L 250.285 770.444L 258.32 770.115L 266.39 769.365L 274.205 768.28L 282.255 766.857L 290.02 765.252L 298.534 763.319L 307.205 761.244L 312.877 759.87L 319.206 758.341L 325.39 756.885L 331.113 755.582L 337.479 754.194L 344.234 752.808L 351.368 751.449L 359.157 750.102L 367.33 748.845L 375.468 747.756L 384.45 746.743L 393.689 745.905L 402.747 745.278z"/>
<path style="stroke:#000000; stroke-width:0.72; fill:none" d="M 13.8346 707.833L 22.417 719.599L 22.645 719.843L 135.674 719.845L 135.895 719.684L 135.895 694.782L 136.732 692.308L 136.743 692.293L 139.982 690.692L 159.322 690.692L 163.311 693.93L 163.563 695.133L 167.552 698.372L 169.915 698.372L 173.833 695.419L 177.751 692.466L 178.655 692.466L 182.69 695.968L 182.69 751.874L 178.655 755.376L 177.751 755.376L 173.833 752.423L 169.915 749.47L 167.552 749.47L 163.563 752.709L 163.311 753.911L 159.322 757.15L 139.982 757.15L 136.743 755.548L 136.732 755.533L 135.895 753.059L 135.895 728.158L 135.674 727.996L 22.6443 727.999L 22.417 728.245L 13.6113 739.995L 25.8221 740.881L 37.9251 742.107L 49.9203 743.672L 61.7856 745.57L 66.5054 746.418L 71.2694 747.325L 75.706 748.216L 80.2569 749.172L 84.9869 750.206L 89.8962 751.317L 94.3498 752.356L 99.1468 753.498L 104.614 754.818L 109.93 756.108L 116.008 757.571L 121.543 758.861L 126.482 759.967L 131.444 761.015L 137.103 762.107L 142.026 762.954L 146.696 763.652L 151.561 764.252L 156.638 764.727L 161.62 765.036L 166.309 765.174L 166.503 764.971L 166.503 759.134L 167.584 758.054L 170.578 758.054L 171.659 759.134L 171.659 764.912L 171.874 765.115L 173.33 765.001L 174.742 764.82L 176.067 764.573L 178.072 764.026L 179.88 763.299L 181.492 762.394L 182.906 761.309L 184.13 760.044L 185.201 758.567L 185.83 757.464L 186.391 756.268L 186.884 754.977L 187.327 753.53L 187.705 751.954L 187.984 750.466L 188.21 748.943L 188.435 747.13L 188.435 700.712L 188.153 698.491L 187.87 696.724L 187.427 694.694L 186.884 692.864L 186.119 690.964L 185.202 689.275L 184.13 687.798L 182.906 686.532L 181.492 685.448L 179.881 684.542L 178.697 684.038L 177.426 683.613L 176.067 683.268L 174.743 683.022L 173.33 682.841L 171.874 682.727L 171.659 682.93L 171.659 688.707L 170.578 689.788L 167.584 689.788L 166.503 688.707L 166.503 682.871L 166.296 682.667L 158.261 682.996L 150.191 683.746L 142.376 684.831L 134.327 686.254L 126.561 687.859L 118.047 689.792L 109.376 691.867L 103.704 693.242L 97.3755 694.77L 91.1912 696.226L 85.4684 697.529L 79.1023 698.917L 72.3475 700.303L 65.2132 701.662L 57.4242 703.01L 49.2513 704.266L 41.1137 705.355L 32.1318 706.368L 22.8923 707.206L 13.8346 707.833z"/>
<path style="stroke:#000000; stroke-width:0.72; fill:none" d="M 599.396 422.621L 593.563 422.622L 593.054 423.11L 593.054 428.339L 592.595 428.846L 582.565 429.897L 570.105 431.604L 558.407 433.551L 547.391 435.675L 536.979 437.913L 527.088 440.2L 517.64 442.474L 508.553 444.671L 497.519 447.225L 486.771 449.432L 476.15 451.164L 465.494 452.296L 456.407 452.641L 456.379 452.612L 456.357 452.576L 456.343 452.534L 456.337 452.488L 456.337 446.652L 455.257 445.571L 452.262 445.571L 451.182 446.652L 451.182 452.429L 451.171 452.495L 451.141 452.551L 451.097 452.595L 451.04 452.623L 450.726 452.615L 446.769 452.087L 443.052 450.859L 441.399 449.944L 439.929 448.823L 438.654 447.498L 437.571 445.982L 435.952 442.491L 434.965 438.631L 434.401 434.643L 434.401 388.226L 434.965 384.238L 435.952 380.378L 437.571 376.887L 438.654 375.371L 439.929 374.046L 441.399 372.925L 443.052 372.01L 446.769 370.782L 450.726 370.254L 451.079 370.244L 451.12 370.274L 451.153 370.315L 451.174 370.365L 451.182 370.42L 451.182 376.198L 451.182 377.278L 452.262 377.278L 455.257 377.278L 456.337 376.198L 456.337 370.361L 456.35 370.289L 456.384 370.232L 466.144 370.623L 477.436 371.886L 488.712 373.807L 500.162 376.236L 511.977 379.022L 524.347 382.015L 534.579 384.414L 545.364 386.774L 556.793 389.024L 568.959 391.089L 581.954 392.897L 592.431 394.01L 592.887 394.516L 592.887 399.734L 593.375 400.243L 599.202 400.244L 599.338 400.25L 599.474 400.246L 599.611 400.232L 599.747 400.209L 599.883 400.176L 600.016 400.133L 600.147 400.08L 600.276 400.016L 600.4 399.942L 600.521 399.858L 600.636 399.763L 600.747 399.657L 600.851 399.54L 600.948 399.413L 601.039 399.274L 601.121 399.123L 601.263 398.756L 601.331 398.369L 601.337 398.21L 601.337 396.476L 602.977 394.952L 609.231 395.362L 606.697 398.743L 600.425 407.112L 598.984 409.397L 463.641 409.397L 461.318 403.986L 454.38 404.127L 452.951 404.378L 439.268 411.435L 452.951 418.491L 454.38 418.742L 461.318 418.883L 463.641 413.472L 598.984 413.472L 600.425 415.757L 606.697 424.126L 609.231 427.507L 602.977 427.917L 602.867 427.921L 602.542 427.887L 602.271 427.801L 601.907 427.583L 601.656 427.327L 601.337 426.393L 601.337 424.659L 601.331 424.5L 601.121 423.746L 601.047 423.61L 600.967 423.483L 600.88 423.365L 600.788 423.257L 600.691 423.157L 600.589 423.066L 600.482 422.984L 600.372 422.91L 600.258 422.845L 600.141 422.789L 600.021 422.741L 599.899 422.701L 599.775 422.669L 599.65 422.645L 599.523 422.629L 599.396 422.621z"/>
<path style="stroke:#000000; stroke-width:0.72; fill:none" d="M 667.11 399.298L 673.147 399.298L 673.656 398.766L 673.656 393.574L 674.115 393.067L 683.948 392.033L 696.409 390.326L 708.107 388.378L 719.122 386.254L 729.535 384.017L 739.426 381.729L 748.874 379.456L 757.961 377.259L 768.994 374.704L 779.742 372.498L 790.364 370.766L 801.019 369.634L 810.132 369.293L 810.166 369.353L 810.177 369.422L 810.177 375.258L 811.258 376.339L 814.252 376.339L 815.333 376.339L 815.333 375.258L 815.333 369.481L 815.342 369.423L 815.365 369.371L 815.402 369.328L 815.449 369.297L 815.508 369.298L 819.191 369.729L 822.712 370.744L 825.776 372.447L 828.196 374.856L 829.96 377.895L 831.129 381.359L 831.828 385.022L 828.26 385.022L 773.323 385.022L 770.744 385.592L 753.086 397.527L 752.988 408.457L 667.53 408.457L 666.089 406.172L 659.817 397.804L 657.283 394.423L 663.537 394.012L 663.647 394.008L 663.971 394.043L 664.243 394.129L 664.606 394.346L 664.857 394.603L 665.176 395.537L 665.176 397.27L 665.182 397.429L 665.393 398.184L 665.476 398.337L 665.568 398.477L 665.668 398.607L 665.774 398.725L 665.887 398.831L 666.006 398.927L 666.129 399.012L 666.258 399.085L 666.39 399.148L 666.525 399.201L 666.664 399.243L 666.804 399.275L 666.946 399.297L 667.089 399.309L 667.232 399.311L 667.375 399.303"/>
<path style="stroke:#000000; stroke-width:0.72; fill:none" d="M 667 421.695L 672.829 421.695L 673.338 422.227L 673.338 427.374L 673.778 427.878L 682.302 428.76L 693.311 430.204L 694.474 429.135L 694.475 428.599L 694.946 426.876L 697.212 424.799L 700.214 421.926L 703.456 419.812L 707.126 418.101L 710.502 416.958L 709.587 412.533L 667.53 412.533L 666.089 414.818L 659.817 423.186L 657.283 426.568L 663.537 426.978L 665.176 425.453L 665.176 423.72L 665.182 423.561L 665.393 422.806L 665.477 422.652L 665.57 422.51L 665.671 422.38L 665.779 422.261L 665.893 422.154L 666.013 422.058L 666.138 421.973L 666.268 421.9L 666.401 421.837L 666.539 421.785L 666.679 421.743L 666.82 421.712L 666.964 421.691L 667.108 421.681L 667.253 421.68L 667.397 421.689"/>
<path style="stroke:#000000; stroke-width:0.72; fill:none" d="M 591.928 297.043L 592.071 297.035L 592.215 297.037L 592.358 297.049L 592.501 297.07L 592.642 297.102L 592.78 297.144L 592.916 297.196L 593.049 297.259L 593.178 297.333L 593.302 297.418L 593.421 297.513L 593.534 297.62L 593.641 297.738L 593.74 297.868L 593.833 298.009L 593.917 298.162L 594.133 299.076L 594.133 300.412L 594.133 300.809L 594.452 301.743L 594.703 302L 595.066 302.217L 595.338 302.303L 595.662 302.338L 595.772 302.334L 602.069 301.921L 606.748 303.701L 612.323 309.276L 613.584 313.436L 625.154 322.107L 625.332 322.285L 633.978 322.285L 634.156 322.107L 645.725 313.436L 646.986 309.276L 652.561 303.701L 657.24 301.921L 663.537 302.334L 665.176 300.809L 665.176 300.412L 665.176 299.076L 665.393 298.162L 665.468 298.023L 665.551 297.894L 665.64 297.774L 665.734 297.663L 665.834 297.562L 665.94 297.47L 666.049 297.388L 666.163 297.314L 666.28 297.249L 666.401 297.193L 666.524 297.146L 666.649 297.107L 666.776 297.077L 666.905 297.055L 667.035 297.042L 667.165 297.037L 672.994 297.038L 673.503 297.527L 673.502 302.727L 673.958 303.234L 686.16 304.588L 698.933 306.412L 710.902 308.481L 722.158 310.723L 732.79 313.067L 742.887 315.443L 755.107 318.401L 766.791 321.149L 778.124 323.541L 789.291 325.43L 800.477 326.671L 810.112 327.049L 810.139 327.018L 810.159 326.982L 810.172 326.943L 810.177 326.901L 810.177 321.064L 810.177 319.984L 811.257 319.984L 814.252 319.984L 815.332 321.064L 815.332 326.842L 815.343 326.909L 815.375 326.966L 815.422 327.011L 815.482 327.038L 815.788 327.031L 819.745 326.503L 823.462 325.275L 825.115 324.361L 826.584 323.239L 827.859 321.914L 828.942 320.398L 830.562 316.907L 831.548 313.048L 832.113 309.06L 832.113 262.642L 831.548 258.654L 830.562 254.794L 828.942 251.303L 827.859 249.787L 826.584 248.462L 825.115 247.341L 823.462 246.426L 819.745 245.198L 815.788 244.671L 815.482 244.664L 815.422 244.691L 815.375 244.735L 815.343 244.793L 815.332 244.86L 815.332 250.637L 815.332 251.718L 814.252 251.718L 811.257 251.718L 810.177 250.637L 810.177 244.801L 810.171 244.756L 810.157 244.714L 810.135 244.678L 810.107 244.648L 800.796 245.006L 789.923 246.182L 779.077 247.979L 768.089 250.261L 758.529 252.479L 748.641 254.868L 738.321 257.347L 727.467 259.833L 715.974 262.244L 703.739 264.5L 703.005 265.036L 702.961 265.874L 699.547 271.815L 694.474 267.211L 694.174 266.427L 693.311 266.142L 683.177 267.482L 674.142 268.438L 673.687 268.946L 673.687 274.154L 673.163 274.664L 667.14 274.665L 667.012 274.658L 666.884 274.643L 666.757 274.621L 666.631 274.59L 666.508 274.55L 666.386 274.502L 666.268 274.446L 666.152 274.381L 666.04 274.308L 665.932 274.225L 665.828 274.134L 665.73 274.033L 665.636 273.924L 665.549 273.805L 665.467 273.677L 665.393 273.54L 665.176 272.626L 665.176 271.289L 665.176 270.893L 664.857 269.958L 664.606 269.702L 664.243 269.485L 663.971 269.399L 663.647 269.364L 663.537 269.368L 657.24 269.781L 652.561 268L 646.986 262.425L 645.725 258.265L 634.156 249.595L 633.978 249.417L 625.332 249.417L 625.154 249.595L 613.584 258.265L 612.323 262.425L 606.748 268L 602.069 269.781L 595.772 269.368L 594.133 270.893L 594.133 271.289L 594.133 272.626L 593.917 273.54L 593.838 273.683L 593.752 273.817L 593.66 273.94L 593.561 274.053L 593.457 274.156L 593.347 274.25L 593.232 274.333L 593.114 274.407L 592.991 274.471L 592.865 274.526L 592.737 274.572L 592.606 274.608L 592.474 274.636L 592.34 274.654L 592.206 274.664L 592.071 274.665L 586.212 274.664L 585.703 274.175L 585.703 268.956L 585.248 268.449L 573.149 267.114L 560.376 265.289L 548.407 263.221L 537.151 260.979L 526.519 258.635L 516.422 256.258L 504.203 253.301L 492.519 250.553L 481.185 248.161L 470.018 246.272L 458.832 245.031L 449.196 244.653L 449.169 244.684L 449.149 244.72L 449.136 244.759L 449.132 244.801L 449.132 250.637L 448.051 251.718L 445.057 251.718L 443.976 251.718L 443.976 250.637L 443.976 244.86L 443.965 244.793L 443.934 244.735L 443.886 244.691L 443.827 244.664L 443.521 244.671L 439.564 245.198L 435.848 246.426L 434.194 247.341L 432.725 248.462L 431.45 249.787L 430.367 251.303L 428.747 254.794L 427.761 258.654L 427.196 262.642L 427.196 309.06L 427.761 313.048L 428.747 316.907L 430.367 320.398L 431.45 321.914L 432.725 323.239L 434.194 324.361L 435.848 325.275L 439.564 326.503L 443.521 327.031L 443.82 327.04L 443.881 327.015L 443.931 326.971L 443.964 326.912L 443.976 326.842L 443.976 321.064L 445.057 319.984L 448.051 319.984L 449.132 321.064L 449.132 326.901L 449.137 326.948L 449.152 326.991L 449.175 327.028L 449.205 327.057L 458.188 326.719L 468.744 325.608L 479.264 323.904L 489.904 321.732L 500.818 319.214L 509.798 317.045L 519.128 314.796L 528.886 312.529L 539.149 310.305L 549.995 308.187L 561.503 306.235L 573.75 304.512L 585.415 303.257L 585.87 302.752L 585.87 297.558L 586.385 297.049L 592.213 297.049"/>
</g>
</svg>