;Layer: Drill PTH
;EasyEDA v6.3.22, 2020-02-29T13:15:50--6:00
;7e361a66f70b42a58be88cf598946bd6,aa4253c5fc2745a6ae017adeef99ad3f,10
;Gerber Generator version 0.2
M48
METRIC,LZ,000.000
;Holesize 1 = 0.600 METRIC
T01C0.600
;Holesize 2 = 0.890 METRIC
T02C0.890
;Holesize 3 = 0.891 METRIC
T03C0.891
;Holesize 4 = 0.914 METRIC
T04C0.914
;Holesize 5 = 0.915 METRIC
T05C0.915
;Holesize 6 = 1.101 METRIC
T06C1.101
;Holesize 7 = 1.501 METRIC
T07C1.501
%
G05
G90
T01
X+006858Y+061722
X+009357Y+061722
X+034798Y+061976
X+037297Y+061976
X+062738Y+061976
X+065237Y+061976
T02
X+073152Y+062738
X+075692Y+062738
X+078232Y+062738
X+080772Y+062738
X+045212Y+062738
X+047752Y+062738
X+050292Y+062738
X+052832Y+062738
X+024892Y+062738
T03
X+017272Y+062738
X+019812Y+062738
X+022352Y+062738
X+009398Y+038521
X+011938Y+038521
X+014478Y+038521
X+009398Y+035981
X+011938Y+035981
X+014478Y+035981
X+041402Y+038521
X+043942Y+038521
X+046482Y+038521
X+041402Y+035981
X+043942Y+035981
X+046482Y+035981
X+065278Y+038521
X+067818Y+038521
X+070358Y+038521
X+065278Y+035981
X+067818Y+035981
X+070358Y+035981
X+066294Y+024130
X+068834Y+024130
X+069342Y+027940
X+071882Y+027940
X+051562Y+009652
X+051562Y+007112
X+070866Y+009652
X+070866Y+007112
X+011938Y+055118
X+009398Y+055118
X+006858Y+055118
X+014478Y+055118
X+017018Y+055118
X+019558Y+055118
X+022098Y+055118
X+024638Y+055118
X+024638Y+042418
X+022098Y+042418
X+019558Y+042418
X+017018Y+042418
X+014478Y+042418
X+011938Y+042418
X+009398Y+042418
X+006858Y+042418
X+039878Y+055372
X+037338Y+055372
X+034798Y+055372
X+042418Y+055372
X+044958Y+055372
X+047498Y+055372
X+050038Y+055372
X+052578Y+055372
X+052578Y+042672
X+050038Y+042672
X+047498Y+042672
X+044958Y+042672
X+042418Y+042672
X+039878Y+042672
X+037338Y+042672
X+034798Y+042672
X+067818Y+055372
X+065278Y+055372
X+062738Y+055372
X+070358Y+055372
X+072898Y+055372
X+075438Y+055372
X+077978Y+055372
X+080518Y+055372
X+080518Y+042672
X+077978Y+042672
X+075438Y+042672
X+072898Y+042672
X+070358Y+042672
X+067818Y+042672
X+065278Y+042672
X+062738Y+042672
X+058674Y+027940
X+066294Y+027940
X+055372Y+024130
X+062992Y+024130
T04
X+045212Y+010160
T05
X+027432Y+003048
X+024892Y+003048
X+022352Y+003048
X+019812Y+003048
X+017272Y+003048
X+035052Y+033827
X+032512Y+033827
X+029972Y+033827
X+066294Y+016855
X+063754Y+016855
X+061214Y+016855
X+058674Y+016855
X+066294Y+019395
X+063754Y+019395
X+061214Y+019395
X+058674Y+019395
X+045212Y+025400
X+042672Y+025400
X+040132Y+025400
X+037592Y+025400
X+035052Y+025400
X+032512Y+025400
X+029972Y+025400
X+027432Y+025400
X+024892Y+025400
X+022352Y+025400
X+019812Y+025400
X+017272Y+025400
X+014732Y+025400
X+012192Y+025400
X+009398Y+025400
X+042672Y+010160
X+040132Y+010160
X+037592Y+010160
X+035052Y+010160
X+032512Y+010160
X+029972Y+010160
X+027432Y+010160
X+024892Y+010160
X+022352Y+010160
X+019812Y+010160
X+017272Y+010160
X+014732Y+010160
X+012192Y+010160
X+009652Y+010160
T06
X+063754Y+009652
X+061214Y+009652
X+058674Y+009652
T07
X+079502Y+013970
X+079502Y+008890
X+079502Y+026670
X+079502Y+021590
M30
