G04 Layer: TopSolderMaskLayer*
G04 EasyEDA v6.3.22, 2020-02-29T13:15:50--6:00*
G04 7e361a66f70b42a58be88cf598946bd6,aa4253c5fc2745a6ae017adeef99ad3f,10*
G04 Gerber Generator version 0.2*
G04 Scale: 100 percent, Rotated: No, Reflected: No *
G04 Dimensions in millimeters *
G04 leading zeros omitted , absolute positions ,3 integer and 3 decimal *
%FSLAX33Y33*%
%MOMM*%
G90*
G71D02*

%ADD27C,0.177800*%
%ADD29C,1.773197*%
%ADD30C,1.773199*%
%ADD31C,1.981200*%
%ADD32C,1.903197*%
%ADD34C,1.703197*%
%ADD36C,3.203194*%
%ADD37C,2.203196*%

%LPD*%
G54D27*
G01X29654Y1143D02*
G01X29705Y1041D01*
G01X29862Y988D01*
G01X30017Y988D01*
G01X30175Y1041D01*
G01X30226Y1143D01*
G01X30175Y1247D01*
G01X30071Y1300D01*
G01X29809Y1351D01*
G01X29705Y1404D01*
G01X29654Y1508D01*
G01X29654Y1559D01*
G01X29705Y1663D01*
G01X29862Y1714D01*
G01X30017Y1714D01*
G01X30175Y1663D01*
G01X30226Y1559D01*
G01X28689Y988D02*
G01X28689Y1714D01*
G01X28689Y1143D02*
G01X28790Y1041D01*
G01X28895Y988D01*
G01X29052Y988D01*
G01X29156Y1041D01*
G01X29260Y1143D01*
G01X29311Y1300D01*
G01X29311Y1404D01*
G01X29260Y1559D01*
G01X29156Y1663D01*
G01X29052Y1714D01*
G01X28895Y1714D01*
G01X28790Y1663D01*
G01X28689Y1559D01*
G01X28346Y988D02*
G01X28346Y1714D01*
G01X28346Y1196D02*
G01X28188Y1041D01*
G01X28084Y988D01*
G01X27929Y988D01*
G01X27825Y1041D01*
G01X27774Y1196D01*
G01X27774Y1714D01*
G01X27774Y1196D02*
G01X27617Y1041D01*
G01X27513Y988D01*
G01X27358Y988D01*
G01X27254Y1041D01*
G01X27203Y1196D01*
G01X27203Y1714D01*
G01X26860Y624D02*
G01X26807Y675D01*
G01X26756Y624D01*
G01X26807Y571D01*
G01X26860Y624D01*
G01X26807Y988D02*
G01X26807Y1714D01*
G01X26413Y1247D02*
G01X25476Y1247D01*
G01X25133Y1300D02*
G01X24511Y1300D01*
G01X24511Y1196D01*
G01X24561Y1092D01*
G01X24615Y1041D01*
G01X24719Y988D01*
G01X24874Y988D01*
G01X24978Y1041D01*
G01X25082Y1143D01*
G01X25133Y1300D01*
G01X25133Y1404D01*
G01X25082Y1559D01*
G01X24978Y1663D01*
G01X24874Y1714D01*
G01X24719Y1714D01*
G01X24615Y1663D01*
G01X24511Y1559D01*
G01X24168Y624D02*
G01X24168Y1714D01*
G01X23202Y988D02*
G01X23202Y1714D01*
G01X23202Y1143D02*
G01X23304Y1041D01*
G01X23408Y988D01*
G01X23566Y988D01*
G01X23670Y1041D01*
G01X23774Y1143D01*
G01X23825Y1300D01*
G01X23825Y1404D01*
G01X23774Y1559D01*
G01X23670Y1663D01*
G01X23566Y1714D01*
G01X23408Y1714D01*
G01X23304Y1663D01*
G01X23202Y1559D01*
G01X22860Y624D02*
G01X22860Y1714D01*
G01X22860Y1196D02*
G01X22702Y1041D01*
G01X22598Y988D01*
G01X22443Y988D01*
G01X22339Y1041D01*
G01X22288Y1196D01*
G01X22288Y1714D01*
G01X21945Y624D02*
G01X21892Y675D01*
G01X21841Y624D01*
G01X21892Y571D01*
G01X21945Y624D01*
G01X21892Y988D02*
G01X21892Y1714D01*
G54D29*
G01X73152Y62738D03*
G01X75692Y62738D03*
G01X78232Y62738D03*
G01X80772Y62738D03*
G01X45212Y62738D03*
G01X47752Y62738D03*
G01X50292Y62738D03*
G01X52832Y62738D03*
G54D30*
G01X17272Y62738D03*
G01X19812Y62738D03*
G01X22352Y62738D03*
G54D29*
G01X24892Y62738D03*
G54D30*
G01X9398Y38521D03*
G01X11938Y38521D03*
G01X14478Y38521D03*
G01X9398Y35981D03*
G01X11938Y35981D03*
G01X14478Y35981D03*
G01X41402Y38521D03*
G01X43942Y38521D03*
G01X46482Y38521D03*
G01X41402Y35981D03*
G01X43942Y35981D03*
G01X46482Y35981D03*
G01X65278Y38521D03*
G01X67818Y38521D03*
G01X70358Y38521D03*
G01X65278Y35981D03*
G01X67818Y35981D03*
G01X70358Y35981D03*
G54D31*
G01X27432Y3048D03*
G01X24892Y3048D03*
G01X22352Y3048D03*
G01X19812Y3048D03*
G01X17272Y3048D03*
G01X35052Y33827D03*
G01X32512Y33827D03*
G01X29972Y33827D03*
G01X66294Y16855D03*
G01X63754Y16855D03*
G01X61214Y16855D03*
G01X58674Y16855D03*
G01X66294Y19395D03*
G01X63754Y19395D03*
G01X61214Y19395D03*
G01X58674Y19395D03*
G54D30*
G01X66294Y24130D03*
G01X68834Y24130D03*
G01X69342Y27940D03*
G01X71882Y27940D03*
G01X51562Y9652D03*
G01X51562Y7112D03*
G01X70866Y9652D03*
G01X70866Y7112D03*
G54D32*
G01X11938Y55118D03*
G01X9398Y55118D03*
G01X6858Y55118D03*
G01X14478Y55118D03*
G01X17018Y55118D03*
G01X19558Y55118D03*
G01X22098Y55118D03*
G01X24638Y55118D03*
G01X24638Y42418D03*
G01X22098Y42418D03*
G01X19558Y42418D03*
G01X17018Y42418D03*
G01X14478Y42418D03*
G01X11938Y42418D03*
G01X9398Y42418D03*
G01X6858Y42418D03*
G36*
G01X44221Y24409D02*
G01X44221Y26390D01*
G01X46202Y26390D01*
G01X46202Y24409D01*
G01X44221Y24409D01*
G37*
G54D31*
G01X42672Y25400D03*
G01X40132Y25400D03*
G01X37592Y25400D03*
G01X35052Y25400D03*
G01X32512Y25400D03*
G01X29972Y25400D03*
G01X27432Y25400D03*
G01X24892Y25400D03*
G01X22352Y25400D03*
G01X19812Y25400D03*
G01X17272Y25400D03*
G01X14732Y25400D03*
G01X12192Y25400D03*
G01X9398Y25400D03*
G01X45212Y10160D03*
G01X42672Y10160D03*
G01X40132Y10160D03*
G01X37592Y10160D03*
G01X35052Y10160D03*
G01X32512Y10160D03*
G01X29972Y10160D03*
G01X27432Y10160D03*
G01X24892Y10160D03*
G01X22352Y10160D03*
G01X19812Y10160D03*
G01X17272Y10160D03*
G01X14732Y10160D03*
G01X12192Y10160D03*
G01X9652Y10160D03*
G54D34*
G01X6858Y61722D03*
G36*
G01X8506Y60871D02*
G01X8506Y62572D01*
G01X10208Y62572D01*
G01X10208Y60871D01*
G01X8506Y60871D01*
G37*
G54D30*
G01X39878Y55372D03*
G01X37338Y55372D03*
G01X34798Y55372D03*
G01X42418Y55372D03*
G01X44958Y55372D03*
G01X47498Y55372D03*
G01X50038Y55372D03*
G01X52578Y55372D03*
G01X52578Y42672D03*
G01X50038Y42672D03*
G01X47498Y42672D03*
G01X44958Y42672D03*
G01X42418Y42672D03*
G01X39878Y42672D03*
G01X37338Y42672D03*
G01X34798Y42672D03*
G54D34*
G01X34798Y61976D03*
G36*
G01X36446Y61125D02*
G01X36446Y62826D01*
G01X38148Y62826D01*
G01X38148Y61125D01*
G01X36446Y61125D01*
G37*
G54D30*
G01X67818Y55372D03*
G01X65278Y55372D03*
G01X62738Y55372D03*
G01X70358Y55372D03*
G01X72898Y55372D03*
G01X75438Y55372D03*
G01X77978Y55372D03*
G01X80518Y55372D03*
G01X80518Y42672D03*
G01X77978Y42672D03*
G01X75438Y42672D03*
G01X72898Y42672D03*
G01X70358Y42672D03*
G01X67818Y42672D03*
G01X65278Y42672D03*
G01X62738Y42672D03*
G54D34*
G01X62738Y61976D03*
G36*
G01X64386Y61125D02*
G01X64386Y62826D01*
G01X66088Y62826D01*
G01X66088Y61125D01*
G01X64386Y61125D01*
G37*
G54D36*
G01X79502Y13970D03*
G01X79502Y8890D03*
G54D37*
G01X63754Y9652D03*
G01X61214Y9652D03*
G01X58674Y9652D03*
G54D30*
G01X58674Y27940D03*
G01X66294Y27940D03*
G01X55372Y24130D03*
G01X62992Y24130D03*
G54D36*
G01X79502Y26670D03*
G01X79502Y21590D03*
M00*
M02*
